<svg width="22" height="23" viewBox="0 0 22 23" fill="none" xmlns="http://www.w3.org/2000/svg">
<path fill-rule="evenodd" clip-rule="evenodd" d="M11.2205 9.39648V13.8418H17.2541C17.1357 14.5497 16.8765 15.2256 16.4924 15.8284C16.1083 16.4311 15.6073 16.948 15.0199 17.3475V20.2387H18.6415C19.7476 19.1431 20.6163 17.825 21.1921 16.3688C21.768 14.9125 22.0382 13.3502 21.9857 11.7818C21.9877 10.9823 21.9211 10.1842 21.7864 9.39648H11.2205Z" fill="#3E82F1"/>
<mask id="mask0_1471_66" style="mask-type:luminance" maskUnits="userSpaceOnUse" x="11" y="9" width="11" height="12">
<path fill-rule="evenodd" clip-rule="evenodd" d="M11.2205 9.39648V13.8418H17.2541C17.1357 14.5497 16.8765 15.2256 16.4924 15.8284C16.1083 16.4311 15.6073 16.948 15.0199 17.3475V20.2387H18.6415C19.7476 19.1431 20.6163 17.825 21.1921 16.3688C21.768 14.9125 22.0382 13.3502 21.9857 11.7818C21.9877 10.9823 21.9211 10.1842 21.7864 9.39648H11.2205Z" fill="white"/>
</mask>
<g mask="url(#mask0_1471_66)">
<path d="M10.6157 9.33887H21.9999V20.9039H10.6157V9.33887Z" fill="#3E82F1"/>
</g>
<path fill-rule="evenodd" clip-rule="evenodd" d="M1.19531 13.6831V16.6683C2.11956 18.5679 3.54796 20.1674 5.31936 21.2862C7.09077 22.405 9.13469 22.9987 11.2205 23.0002C13.9509 23.0784 16.6069 22.0902 18.6416 20.239L15.02 17.3478C14.1498 17.9169 13.1625 18.2752 12.1344 18.395C11.1062 18.5148 10.0647 18.3929 9.09026 18.0387C8.11584 17.6845 7.2346 17.1075 6.51461 16.3523C5.79463 15.5971 5.25516 14.6838 4.93787 13.6831H1.19531Z" fill="#32A753"/>
<path fill-rule="evenodd" clip-rule="evenodd" d="M1.19523 6.33887C0.407252 7.94278 -0.00292969 9.71081 -0.00292969 11.5034C-0.00292969 13.296 0.407252 15.064 1.19523 16.6679L4.93779 13.6827C4.47916 12.2746 4.47916 10.7539 4.93779 9.34578V6.33887H1.19523Z" fill="#F9BB00"/>
<path fill-rule="evenodd" clip-rule="evenodd" d="M1.19531 6.33907L4.93787 9.31707C5.36314 7.95711 6.19865 6.76746 7.32616 5.91651C8.45367 5.06555 9.81607 4.59637 11.2205 4.57539C12.8116 4.55233 14.3467 5.17096 15.4896 6.2957L18.7128 2.99243C16.6911 1.04683 14.0052 -0.025944 11.2205 -2.94815e-05C9.13411 0.00302078 7.09001 0.59811 5.31868 1.71815C3.54735 2.83819 2.11922 4.43864 1.19531 6.33907Z" fill="#E74133"/>
</svg>
