<svg width="21" height="22" viewBox="0 0 21 22" fill="none" xmlns="http://www.w3.org/2000/svg">
<path d="M16.6796 16.7751L15.9704 17.4801L0.779945 2.19922L1.48915 1.49421L16.6796 16.7751Z" fill="#9BA8B8"/>
<path d="M17.9314 16.6158L15.5113 16.309L15.8038 18.7308L19.3089 20.1292L17.9314 16.6158Z" fill="#9BA8B8"/>
<rect x="16.6138" y="5.00006" width="2" height="9" transform="rotate(23.6741 16.6138 5.00006)" fill="#9BA8B8"/>
<rect x="12" y="5.04535" width="1" height="4" transform="rotate(-2.59547 12 5.04535)" fill="#9BA8B8"/>
<rect x="4.54712" y="14.2975" width="1" height="4" transform="rotate(-83.6806 4.54712 14.2975)" fill="#9BA8B8"/>
<rect x="15.5278" y="2.84033" width="1.08852" height="2.04729" transform="rotate(24.9255 15.5278 2.84033)" fill="#9BA8B8"/>
<rect x="8.32983" y="3.38916" width="1" height="4" transform="rotate(-23.6483 8.32983 3.38916)" fill="#9BA8B8"/>
<rect x="3" y="9.49042" width="0.54813" height="2.19252" transform="rotate(-63.4481 3 9.49042)" fill="#9BA8B8"/>
<rect x="11.9636" y="14.0001" width="2" height="9" transform="rotate(62.233 11.9636 14.0001)" fill="#9BA8B8"/>
</svg>
