<svg width="45" height="46" viewBox="0 0 45 46" fill="none" xmlns="http://www.w3.org/2000/svg">
<mask id="path-1-inside-1_1611_943" fill="white">
<path fill-rule="evenodd" clip-rule="evenodd" d="M2.12815 41.108C3.29972 42.2796 12.9555 34.5233 23.6949 23.7839C34.4343 13.0444 42.1906 3.38868 41.019 2.21711C39.8475 1.04554 30.1917 8.80181 19.4523 19.5412C8.71285 30.2806 0.956579 39.9364 2.12815 41.108ZM18.2841 23.4566C18.4372 23.6098 19.6994 22.5959 21.1031 21.1921C22.5069 19.7884 23.5208 18.5262 23.3676 18.3731C23.2145 18.22 21.9524 19.2338 20.5486 20.6376C19.1448 22.0413 18.131 23.3035 18.2841 23.4566Z"/>
</mask>
<path fill-rule="evenodd" clip-rule="evenodd" d="M2.12815 41.108C3.29972 42.2796 12.9555 34.5233 23.6949 23.7839C34.4343 13.0444 42.1906 3.38868 41.019 2.21711C39.8475 1.04554 30.1917 8.80181 19.4523 19.5412C8.71285 30.2806 0.956579 39.9364 2.12815 41.108ZM18.2841 23.4566C18.4372 23.6098 19.6994 22.5959 21.1031 21.1921C22.5069 19.7884 23.5208 18.5262 23.3676 18.3731C23.2145 18.22 21.9524 19.2338 20.5486 20.6376C19.1448 22.0413 18.131 23.3035 18.2841 23.4566Z" fill="#9BA8B8"/>
<path d="M23.6949 23.7839L24.402 24.491L24.402 24.491L23.6949 23.7839ZM2.12815 41.108L2.83526 40.4009L2.83526 40.4009L2.12815 41.108ZM41.019 2.21711L40.3119 2.92422L40.3119 2.92422L41.019 2.21711ZM19.4523 19.5412L18.7452 18.8341L18.7452 18.8341L19.4523 19.5412ZM22.9878 23.0768C17.6354 28.4292 12.564 33.0269 8.69734 36.1329C6.75897 37.69 5.15018 38.8504 3.97388 39.5443C3.37864 39.8954 2.94352 40.0973 2.65941 40.1838C2.51608 40.2275 2.46546 40.2246 2.48119 40.2251C2.50351 40.2259 2.67344 40.2391 2.83526 40.4009L1.42104 41.8151C1.72931 42.1234 2.11197 42.2132 2.40969 42.2238C2.70082 42.2343 2.98826 42.1744 3.24206 42.0971C3.75219 41.9417 4.34754 41.6459 4.99009 41.2669C6.28936 40.5004 7.98539 39.2702 9.94984 37.6922C13.8888 34.5281 19.015 29.878 24.402 24.491L22.9878 23.0768ZM40.3119 2.92422C40.1501 2.7624 40.137 2.59246 40.1362 2.57015C40.1356 2.55442 40.1385 2.60504 40.0949 2.74837C40.0083 3.03248 39.8065 3.4676 39.4553 4.06284C38.7614 5.23914 37.601 6.84793 36.044 8.78629C32.938 12.653 28.3402 17.7243 22.9878 23.0768L24.402 24.491C29.789 19.104 34.4391 13.9778 37.6032 10.0388C39.1812 8.07435 40.4114 6.37832 41.1779 5.07904C41.557 4.4365 41.8528 3.84115 42.0081 3.33102C42.0854 3.07722 42.1453 2.78978 42.1349 2.49865C42.1242 2.20093 42.0344 1.81827 41.7261 1.51L40.3119 2.92422ZM20.1594 20.2483C25.5118 14.8959 30.5832 10.2982 34.4498 7.19217C36.3882 5.63512 37.997 4.47474 39.1733 3.78081C39.7685 3.42966 40.2037 3.2278 40.4878 3.14128C40.6311 3.09763 40.6817 3.10054 40.666 3.09997C40.6437 3.09917 40.4737 3.08604 40.3119 2.92422L41.7261 1.51C41.4179 1.20174 41.0352 1.1119 40.7375 1.10125C40.4464 1.09084 40.1589 1.15074 39.9051 1.22803C39.395 1.38338 38.7996 1.67917 38.1571 2.05822C36.8578 2.82469 35.1618 4.05493 33.1973 5.63293C29.2584 8.79702 24.1321 13.4471 18.7452 18.8341L20.1594 20.2483ZM2.83526 40.4009C2.99708 40.5627 3.01022 40.7326 3.01101 40.7549C3.01158 40.7707 3.00867 40.7201 3.05232 40.5767C3.13884 40.2926 3.3407 39.8575 3.69185 39.2623C4.38578 38.086 5.54616 36.4772 7.10321 34.5388C10.2092 30.6721 14.8069 25.6008 20.1594 20.2483L18.7452 18.8341C13.3582 24.2211 8.70806 29.3473 5.54397 33.2863C3.96597 35.2507 2.73573 36.9468 1.96926 38.246C1.59021 38.8886 1.29442 39.4839 1.13907 39.9941C1.06178 40.2479 1.00188 40.5353 1.01229 40.8264C1.02294 41.1242 1.11278 41.5068 1.42105 41.8151L2.83526 40.4009ZM20.396 20.485C19.7114 21.1696 19.0724 21.7479 18.5984 22.1286C18.3564 22.323 18.184 22.4443 18.0837 22.5035C18.0264 22.5373 18.0392 22.5228 18.1003 22.5042C18.1296 22.4953 18.2259 22.4676 18.3613 22.4725C18.5033 22.4776 18.7657 22.524 18.9912 22.7495L17.577 24.1637C17.8216 24.4083 18.1118 24.4648 18.2898 24.4712C18.4613 24.4773 18.6018 24.4422 18.683 24.4175C18.8479 24.3673 18.9953 24.2878 19.0999 24.2261C19.3232 24.0944 19.5828 23.9032 19.8509 23.6878C20.3972 23.249 21.0911 22.6184 21.8103 21.8992L20.396 20.485ZM22.6605 19.0802C22.435 18.8547 22.3886 18.5923 22.3835 18.4503C22.3786 18.3149 22.4063 18.2186 22.4152 18.1893C22.4339 18.1282 22.4483 18.1154 22.4145 18.1727C22.3553 18.273 22.234 18.4453 22.0396 18.6874C21.6589 19.1614 21.0807 19.8004 20.396 20.485L21.8103 21.8992C22.5294 21.1801 23.16 20.4862 23.5989 19.9399C23.8142 19.6718 24.0054 19.4122 24.1371 19.1889C24.1988 19.0843 24.2783 18.9369 24.3285 18.7719C24.3532 18.6908 24.3883 18.5502 24.3822 18.3788C24.3758 18.2008 24.3193 17.9106 24.0747 17.666L22.6605 19.0802ZM21.2557 21.3447C21.9403 20.6601 22.5794 20.0819 23.0533 19.7011C23.2954 19.5067 23.4677 19.3854 23.5681 19.3262C23.6253 19.2924 23.6125 19.3069 23.5514 19.3255C23.5221 19.3344 23.4258 19.3621 23.2904 19.3572C23.1484 19.3521 22.886 19.3057 22.6605 19.0802L24.0747 17.666C23.8301 17.4214 23.5399 17.3649 23.3619 17.3585C23.1905 17.3524 23.05 17.3875 22.9688 17.4122C22.8039 17.4625 22.6564 17.5419 22.5518 17.6036C22.3286 17.7353 22.069 17.9265 21.8008 18.1419C21.2545 18.5807 20.5606 19.2113 19.8415 19.9305L21.2557 21.3447ZM18.9912 22.7495C19.2167 22.975 19.2632 23.2374 19.2682 23.3794C19.2731 23.5148 19.2454 23.6111 19.2365 23.6404C19.2179 23.7015 19.2034 23.7143 19.2372 23.657C19.2964 23.5567 19.4177 23.3844 19.6121 23.1423C19.9929 22.6683 20.5711 22.0293 21.2557 21.3447L19.8415 19.9305C19.1223 20.6496 18.4917 21.3435 18.0529 21.8898C17.8375 22.1579 17.6463 22.4176 17.5146 22.6408C17.4529 22.7454 17.3735 22.8928 17.3232 23.0578C17.2985 23.139 17.2634 23.2795 17.2695 23.4509C17.2759 23.6289 17.3324 23.9191 17.577 24.1637L18.9912 22.7495Z" fill="#9BA8B8" mask="url(#path-1-inside-1_1611_943)"/>
<path d="M36.5314 34.5648L34.3857 36.6978L2.14574 4.2661L4.29148 2.13305L36.5314 34.5648Z" fill="#9BA8B8"/>
<path d="M39.8286 33.59L33.7314 33.8939L33.3914 39.9892L41.7914 42.0018L39.8286 33.59Z" fill="#9BA8B8"/>
</svg>
