<svg viewBox="0 0 40 40" fill="none" xmlns="http://www.w3.org/2000/svg">
<path d="M12.3448 26.7589L32.7911 11.0393L35.6493 14.7568L15.2029 30.4764L12.3448 26.7589Z" fill="current"/>
<path d="M8.12764 27.0437L10.9158 24.9002L16.632 32.3352L13.8439 34.4788L8.12764 27.0437Z" fill="current"/>
<path d="M1.90683 36.2626L10.2712 29.8319L11.7003 31.6906L3.33588 38.1214L1.90683 36.2626Z" fill="current"/>
<path d="M0.262919 36.0478L3.05105 33.9042L5.90917 37.6217L3.12103 39.7653L0.262919 36.0478Z" fill="current"/>
<path d="M39.7965 8.61086L35.6493 14.7568L32.7911 11.0393L39.7965 8.61086Z" fill="current"/>
<path d="M39.5 8.81243C39.6967 9.05765 39.318 8.56236 39.5 8.81243C32.3927 -0.0472012 18.2468 -2.85006 7.98794 3.28786C4.29853 5.49526 1.60553 8.48126 0 11.8124C1.62019 9.3662 3.88211 7.18607 6.74329 5.47421C16.6814 -0.471848 25.7029 3.13428 33 11.3124L39.5 8.81243Z" fill="current"/>
</svg>
