<svg width="54" height="52" viewBox="0 0 54 52" fill="none" xmlns="http://www.w3.org/2000/svg">
<path d="M40.0318 16.889L44.3211 15.8972L41.3175 19.1159L21.9915 30.2738L20.7058 28.0469L40.0318 16.889Z" fill="#9BA8B8"/>
<path d="M19.7253 30.8399L19.0824 29.7264L11.7896 33.9369L12.4324 35.0504L19.7253 30.8399Z" fill="#9BA8B8"/>
<path d="M12.4324 35.0504L19.7253 30.8399L19.0824 29.7264L11.7896 33.9369M12.4324 35.0504L11.7896 33.9369M12.4324 35.0504L11.7291 36.4462L10.1801 36.7632L9.18005 35.0311L10.2291 33.8481L11.7896 33.9369M44.3211 15.8972L40.0318 16.889L20.7058 28.0469L21.9915 30.2738L41.3175 19.1159L44.3211 15.8972ZM23.2772 32.5007L24.0848 32.7767L22.14 33.8995L21.3324 33.6235L17.4753 26.9427L17.64 26.1053L19.5848 24.9825L19.42 25.8199L23.2772 32.5007Z" stroke="#9BA8B8"/>
<path d="M19.1213 25.25L23.6213 33.0442L21.8893 34.0442L17.3893 26.25L19.1213 25.25Z" fill="#9BA8B8"/>
<path d="M11.3451 33.7811L19.1393 29.2811L20.1393 31.0132L12.3451 35.5132L11.3451 33.7811Z" fill="#9BA8B8"/>
<path d="M45.6927 15.0392C45.503 14.7374 45.3057 14.4384 45.1007 14.1425C37.6927 3.44951 23.0189 0.786561 12.326 8.19459C8.48044 10.8588 5.67347 14.4627 4 18.4831C5.68875 15.5307 8.0464 12.8995 11.0286 10.8334C21.3874 3.65689 35.4819 5.93164 43.0877 15.8021L45.6927 15.0392Z" fill="#9BA8B8"/>
</svg>
