<svg viewBox="0 0 270 314" xmlns="http://www.w3.org/2000/svg">
<path d="M254.203 179.326C245.978 160.395 234.619 142.051 220.257 124.882C202.892 103.992 185.593 90.022 176.78 83.5592L210.073 21.8037C211.705 18.7356 211.183 14.9493 208.637 12.5339C200.02 4.11268 190.881 0 180.697 0C171.362 0 162.81 3.52516 155.368 6.65863C149.493 9.07401 143.944 11.4241 139.44 11.4241C138.069 11.4241 136.894 11.2283 135.719 10.7713C120.182 5.09189 108.235 1.56674 96.6807 1.56674C82.0578 1.56674 69.5892 7.442 57.3817 19.9759C54.8358 22.5871 54.4441 26.6998 56.4678 29.768L92.3721 84.0162C83.494 90.6096 66.521 104.449 49.4827 124.882C35.1863 142.051 23.7622 160.395 15.5368 179.326C5.22245 203.153 0 228.025 0 253.224C0 286.713 27.2873 314 60.7763 314H208.963C242.452 314 269.74 286.713 269.74 253.224C269.74 228.025 264.517 203.153 254.203 179.326ZM73.1796 26.5039C80.7522 19.9759 87.9983 17.1035 96.6807 17.1035C105.951 17.1035 116.395 20.237 130.3 25.3942C133.173 26.4387 136.241 26.9609 139.374 26.9609C147.012 26.9609 154.324 23.958 161.309 21.0204C168.032 18.2133 174.43 15.5368 180.632 15.5368C183.635 15.5368 187.878 16.059 193.231 19.8453L161.896 78.0757H107.321L73.1796 26.5039ZM208.963 298.333H60.7763C35.9044 298.333 15.6674 278.096 15.6674 253.224C15.6674 211.379 31.0083 171.688 61.168 135.262C80.2299 112.217 99.6183 97.921 105.494 93.743H164.116C170.056 97.8557 189.379 112.217 208.441 135.262C238.666 171.688 253.942 211.314 253.942 253.224C254.072 278.096 233.835 298.333 208.963 298.333Z" />
</svg>
