<svg viewBox="0 0 46 59" fill="none" xmlns="http://www.w3.org/2000/svg">
<path d="M44.2989 30.9854C43.237 27.743 41.4564 24.2907 39.3826 20.8713C36.2757 15.7502 32.505 10.7262 29.4897 6.95923C27.9842 5.07849 26.6668 3.51223 25.7169 2.41301C25.242 1.86173 24.8592 1.42891 24.5857 1.12607C24.4493 0.972463 24.3405 0.854117 24.253 0.761469C24.2083 0.713416 24.1714 0.675043 24.1235 0.626068C24.0979 0.601523 24.0729 0.574904 24.0153 0.524662C23.9828 0.497006 23.9481 0.463818 23.857 0.3956C23.8074 0.360453 23.7482 0.316779 23.6187 0.245219C23.551 0.211109 23.4663 0.168473 23.3276 0.118346C23.1869 0.0713301 22.9955 0.00311133 22.64 0C22.3691 0.00115234 22.1943 0.0458633 22.0621 0.0810098C21.8051 0.160982 21.6985 0.228164 21.6106 0.275064C21.449 0.369902 21.3989 0.415766 21.3498 0.454139C21.2635 0.521436 21.2373 0.548977 21.2074 0.577785C21.1552 0.627912 21.127 0.654531 21.0945 0.689793C21.0337 0.751559 20.9707 0.819777 20.8888 0.909314C20.5801 1.24626 20.0411 1.85297 19.3177 2.69729C16.787 5.64856 12.0418 11.4371 7.88203 17.7384C5.8024 20.8912 3.86773 24.1708 2.42511 27.33C1.70501 28.9091 1.10729 30.4605 0.682419 31.9681C0.258126 33.4736 0.00161394 34.9374 6.62788e-07 36.3599C-0.00149738 42.6047 2.53654 48.278 6.63139 52.369C10.7219 56.4632 16.3946 59.0009 22.6401 58.9998C28.8853 59.0009 34.5582 56.4632 38.6482 52.369C42.7414 48.278 45.2822 42.6047 45.2801 36.3599C45.2766 34.6297 44.9013 32.8385 44.2989 30.9854ZM35.7382 49.4585C32.3791 52.8128 27.7615 54.8823 22.6399 54.8835C17.5182 54.8823 12.9005 52.8128 9.54141 49.4585C6.18763 46.1 4.11698 41.4811 4.11594 36.3601C4.11272 35.249 4.37833 33.8363 4.89423 32.2615C5.7926 29.5 7.44045 26.2556 9.41453 23.0057C12.3759 18.1246 16.0602 13.2072 19.0019 9.53311C20.4541 7.72047 21.7246 6.2086 22.6399 5.14671C22.6867 5.19995 22.7321 5.25434 22.7811 5.31092C25.2061 8.13313 29.8873 13.8407 33.9134 19.933C35.927 22.976 37.7758 26.1181 39.0926 29.0032C39.7515 30.4458 40.2782 31.8201 40.6322 33.0709C40.9883 34.3205 41.1653 35.4421 41.1643 36.3601C41.1621 41.4811 39.0926 46.1001 35.7382 49.4585Z" fill=""/>
<path d="M15.517 45V27.5455H19.2074V34.7472H26.6989V27.5455H30.3807V45H26.6989V37.7898H19.2074V45H15.517Z" fill=""/>
</svg>
