<svg viewBox="0 0 40 40" fill="none" xmlns="http://www.w3.org/2000/svg">
<rect width="26.0389" height="14.021" transform="matrix(-0.706845 -0.707369 -0.706845 0.707369 28.6179 18.4191)" fill=""/>
<mask id="path-2-inside-1_1616_211" fill="white">
<path d="M40 21.4123C39.8487 21.434 39.6898 21.4627 39.5244 21.5031C39.5779 21.5305 39.6259 21.5636 39.667 21.6047C40.6904 22.6288 37.4234 27.5594 32.3701 32.6164C28.42 36.5694 24.5469 39.4289 22.5557 40.0002H21.4717C21.456 39.9906 21.4403 39.9808 21.4258 39.9699C21.4243 39.98 21.4233 39.9901 21.4219 40.0002H7.00781L40 6.98358V21.4123ZM40 40.0002H27.7275C29.7891 38.685 32.1447 36.7761 34.4619 34.4572C36.7791 32.1382 38.6859 29.7809 40 27.718V40.0002ZM37.1914 21.2248C36.8776 20.9109 36.3181 20.8786 35.5811 21.0812C35.6228 21.1014 35.6609 21.124 35.6924 21.1555C36.4645 21.9282 33.7947 25.8538 29.7285 29.923C25.7335 33.921 21.8786 36.5684 21.0127 35.9269C20.9099 36.4929 20.9771 36.9273 21.2393 37.1896C22.3981 38.3478 26.9079 35.7137 31.3125 31.3058C35.7173 26.8977 38.3494 22.384 37.1914 21.2248ZM32.6348 21.381C32.386 21.1321 31.9652 21.0826 31.4219 21.2023C31.4544 21.2193 31.4846 21.2378 31.5098 21.2629C32.1215 21.875 30.2954 24.6956 27.4307 27.5627C24.6161 30.3793 21.8467 32.1922 21.1699 31.675C21.1179 32.0936 21.1871 32.4213 21.3945 32.6291C22.3121 33.5473 25.5721 31.774 28.6758 28.6682C31.7794 25.5622 33.5521 22.2994 32.6348 21.381ZM29.2051 21.6848C29.0539 21.5337 28.7885 21.5169 28.4395 21.6086C28.4584 21.6182 28.4767 21.6282 28.4912 21.6428C28.8631 22.016 27.6142 23.8698 25.7012 25.7844C23.8211 27.6658 21.9998 28.9054 21.583 28.5949C21.5373 28.864 21.5718 29.0708 21.6982 29.1974C22.2571 29.7567 24.3907 28.5289 26.4639 26.4543C28.5371 24.3795 29.7639 22.244 29.2051 21.6848Z"/>
</mask>
<path d="M40 21.4123C39.8487 21.434 39.6898 21.4627 39.5244 21.5031C39.5779 21.5305 39.6259 21.5636 39.667 21.6047C40.6904 22.6288 37.4234 27.5594 32.3701 32.6164C28.42 36.5694 24.5469 39.4289 22.5557 40.0002H21.4717C21.456 39.9906 21.4403 39.9808 21.4258 39.9699C21.4243 39.98 21.4233 39.9901 21.4219 40.0002H7.00781L40 6.98358V21.4123ZM40 40.0002H27.7275C29.7891 38.685 32.1447 36.7761 34.4619 34.4572C36.7791 32.1382 38.6859 29.7809 40 27.718V40.0002ZM37.1914 21.2248C36.8776 20.9109 36.3181 20.8786 35.5811 21.0812C35.6228 21.1014 35.6609 21.124 35.6924 21.1555C36.4645 21.9282 33.7947 25.8538 29.7285 29.923C25.7335 33.921 21.8786 36.5684 21.0127 35.9269C20.9099 36.4929 20.9771 36.9273 21.2393 37.1896C22.3981 38.3478 26.9079 35.7137 31.3125 31.3058C35.7173 26.8977 38.3494 22.384 37.1914 21.2248ZM32.6348 21.381C32.386 21.1321 31.9652 21.0826 31.4219 21.2023C31.4544 21.2193 31.4846 21.2378 31.5098 21.2629C32.1215 21.875 30.2954 24.6956 27.4307 27.5627C24.6161 30.3793 21.8467 32.1922 21.1699 31.675C21.1179 32.0936 21.1871 32.4213 21.3945 32.6291C22.3121 33.5473 25.5721 31.774 28.6758 28.6682C31.7794 25.5622 33.5521 22.2994 32.6348 21.381ZM29.2051 21.6848C29.0539 21.5337 28.7885 21.5169 28.4395 21.6086C28.4584 21.6182 28.4767 21.6282 28.4912 21.6428C28.8631 22.016 27.6142 23.8698 25.7012 25.7844C23.8211 27.6658 21.9998 28.9054 21.583 28.5949C21.5373 28.864 21.5718 29.0708 21.6982 29.1974C22.2571 29.7567 24.3907 28.5289 26.4639 26.4543C28.5371 24.3795 29.7639 22.244 29.2051 21.6848Z" fill=""/>
<path d="M40 21.4123L40.1419 22.4022L41 22.2792V21.4123H40ZM39.5244 21.5031L39.2872 20.5317L36.6786 21.1686L39.0684 22.3931L39.5244 21.5031ZM39.667 21.6047L40.3744 20.8978L40.3737 20.8971L39.667 21.6047ZM32.3701 32.6164L33.0775 33.3232L33.0775 33.3232L32.3701 32.6164ZM22.5557 40.0002V41.0002H22.6963L22.8314 40.9614L22.5557 40.0002ZM21.4717 40.0002L20.9518 40.8544L21.1913 41.0002H21.4717V40.0002ZM21.4258 39.9699L22.0255 39.1697L20.6842 38.1643L20.4367 39.8223L21.4258 39.9699ZM21.4219 40.0002V41.0002H22.29L22.412 40.1407L21.4219 40.0002ZM7.00781 40.0002L6.30044 39.2933L4.59486 41.0002H7.00781V40.0002ZM40 6.98358H41V4.5681L39.2926 6.27674L40 6.98358ZM40 40.0002V41.0002H41V40.0002H40ZM27.7275 40.0002L27.1897 39.1571L24.3008 41.0002H27.7275V40.0002ZM34.4619 34.4572L35.1693 35.1641L35.1693 35.1641L34.4619 34.4572ZM40 27.718H41V24.2867L39.1566 27.1807L40 27.718ZM37.1914 21.2248L37.8989 20.5181L37.8986 20.5178L37.1914 21.2248ZM35.5811 21.0812L35.3159 20.117L32.7453 20.8239L35.1467 21.982L35.5811 21.0812ZM35.6924 21.1555L36.3998 20.4486L36.3988 20.4476L35.6924 21.1555ZM29.7285 29.923L30.4359 30.6299L30.4359 30.6299L29.7285 29.923ZM21.0127 35.9269L21.6079 35.1234L20.3162 34.1665L20.0288 35.7482L21.0127 35.9269ZM21.2393 37.1896L20.5319 37.8965L20.5324 37.897L21.2393 37.1896ZM31.3125 31.3058L32.0199 32.0127L32.0199 32.0127L31.3125 31.3058ZM32.6348 21.381L33.3423 20.6744L33.3421 20.6741L32.6348 21.381ZM31.4219 21.2023L31.2067 20.2257L28.5204 20.8175L30.9596 22.0891L31.4219 21.2023ZM31.5098 21.2629L32.2171 20.556L32.2154 20.5543L31.5098 21.2629ZM27.4307 27.5627L28.138 28.2695L28.138 28.2695L27.4307 27.5627ZM21.1699 31.675L21.7772 30.8805L20.3924 29.8221L20.1776 31.5517L21.1699 31.675ZM21.3945 32.6291L20.6869 33.3356L20.6872 33.3359L21.3945 32.6291ZM28.6758 28.6682L29.3831 29.375L29.3832 29.375L28.6758 28.6682ZM29.2051 21.6848L29.9124 20.9779L29.9119 20.9774L29.2051 21.6848ZM28.4395 21.6086L28.1855 20.6414L25.6428 21.309L27.9864 22.5001L28.4395 21.6086ZM28.4912 21.6428L29.1996 20.9369L29.1978 20.9351L28.4912 21.6428ZM25.7012 25.7844L26.4085 26.4912L26.4086 26.4912L25.7012 25.7844ZM21.583 28.5949L22.1805 27.793L20.8704 26.817L20.5971 28.4276L21.583 28.5949ZM21.6982 29.1974L20.9907 29.9041L20.9909 29.9043L21.6982 29.1974ZM26.4639 26.4543L27.1712 27.1611L27.1712 27.1611L26.4639 26.4543ZM40 21.4123L39.8581 20.4224C39.6812 20.4478 39.4898 20.4822 39.2872 20.5317L39.5244 21.5031L39.7616 22.4746C39.8898 22.4433 40.0162 22.4202 40.1419 22.4022L40 21.4123ZM39.5244 21.5031L39.0684 22.3931C39.0469 22.3821 39.0055 22.3574 38.9603 22.3122L39.667 21.6047L40.3737 20.8971C40.2462 20.7698 40.1089 20.679 39.9804 20.6131L39.5244 21.5031ZM39.667 21.6047L38.9596 22.3115C38.8338 22.1856 38.855 22.0746 38.8545 22.1593C38.8541 22.2469 38.8276 22.4253 38.726 22.714C38.5244 23.2864 38.1052 24.0777 37.4637 25.0458C36.1899 26.9681 34.1569 29.4135 31.6627 31.9095L32.3701 32.6164L33.0775 33.3232C35.6366 30.7623 37.7637 28.2139 39.1309 26.1506C39.8099 25.1259 40.3313 24.1765 40.6124 23.3783C40.7521 22.9817 40.8525 22.5674 40.8545 22.1697C40.8566 21.7689 40.756 21.2798 40.3744 20.8978L39.667 21.6047ZM32.3701 32.6164L31.6628 31.9095C29.7157 33.858 27.7958 35.5285 26.1291 36.7758C24.4307 38.0468 23.0883 38.807 22.2799 39.039L22.5557 40.0002L22.8314 40.9614C24.0143 40.622 25.604 39.6668 27.3275 38.3771C29.0827 37.0635 31.0744 35.3278 33.0775 33.3232L32.3701 32.6164ZM22.5557 40.0002V39.0002H21.4717V40.0002V41.0002H22.5557V40.0002ZM21.4717 40.0002L21.9915 39.1459C21.9869 39.1431 21.9891 39.1444 21.9941 39.1476C21.9993 39.151 22.0107 39.1586 22.0255 39.1697L21.4258 39.9699L20.826 40.7701C20.8817 40.8118 20.9323 40.8426 20.9518 40.8544L21.4717 40.0002ZM21.4258 39.9699L20.4367 39.8223C20.4351 39.8333 20.4338 39.8427 20.4329 39.8497C20.4321 39.8565 20.4313 39.8624 20.431 39.8651C20.4305 39.869 20.4306 39.8687 20.4306 39.8685C20.4307 39.8678 20.4311 39.8645 20.4318 39.8597L21.4219 40.0002L22.412 40.1407C22.4133 40.1309 22.4144 40.1225 22.4151 40.1168C22.4158 40.1116 22.4164 40.1062 22.4166 40.105C22.4169 40.1027 22.4168 40.1036 22.4165 40.1053C22.4163 40.1072 22.4157 40.1116 22.4148 40.1175L21.4258 39.9699ZM21.4219 40.0002V39.0002H7.00781V40.0002V41.0002H21.4219V40.0002ZM7.00781 40.0002L7.71518 40.707L40.7074 7.69043L40 6.98358L39.2926 6.27674L6.30044 39.2933L7.00781 40.0002ZM40 6.98358H39V21.4123H40H41V6.98358H40ZM40 40.0002V39.0002H27.7275V40.0002V41.0002H40V40.0002ZM27.7275 40.0002L28.2654 40.8432C30.3988 39.4821 32.8105 37.5246 35.1693 35.1641L34.4619 34.4572L33.7545 33.7504C31.479 36.0276 29.1793 37.8878 27.1897 39.1571L27.7275 40.0002ZM34.4619 34.4572L35.1693 35.1641C37.5282 32.8034 39.4836 30.39 40.8434 28.2552L40 27.718L39.1566 27.1807C37.8883 29.1718 36.03 31.4731 33.7545 33.7504L34.4619 34.4572ZM40 27.718H39V40.0002H40H41V27.718H40ZM37.1914 21.2248L37.8986 20.5178C37.1672 19.7862 36.0966 19.9024 35.3159 20.117L35.5811 21.0812L35.8462 22.0454C36.1498 21.962 36.35 21.9468 36.4642 21.956C36.5689 21.9645 36.5389 21.9865 36.4842 21.9318L37.1914 21.2248ZM35.5811 21.0812L35.1467 21.982C35.1445 21.9809 35.0687 21.9458 34.986 21.8633L35.6924 21.1555L36.3988 20.4476C36.2531 20.3023 36.1011 20.2218 36.0154 20.1805L35.5811 21.0812ZM35.6924 21.1555L34.985 21.8623C34.8106 21.6877 34.8267 21.5121 34.8253 21.5499C34.8239 21.5862 34.8069 21.7039 34.7233 21.924C34.5585 22.3576 34.2199 22.9733 33.6979 23.7407C32.6635 25.2615 31.0238 27.212 29.0211 29.2162L29.7285 29.923L30.4359 30.6299C32.4993 28.5649 34.2277 26.518 35.3517 24.8655C35.9089 24.0462 36.3471 23.2812 36.5929 22.6343C36.7145 22.3142 36.8111 21.9666 36.8239 21.6244C36.8366 21.2837 36.7672 20.8163 36.3998 20.4486L35.6924 21.1555ZM29.7285 29.923L29.0212 29.2162C27.0538 31.185 25.1382 32.8032 23.6303 33.841C22.8707 34.3637 22.2516 34.7134 21.8034 34.8945C21.5771 34.9859 21.4396 35.0156 21.3765 35.0217C21.3016 35.0289 21.4357 34.9958 21.6079 35.1234L21.0127 35.9269L20.4175 36.7305C20.8062 37.0184 21.2502 37.043 21.5674 37.0125C21.8965 36.981 22.2334 36.8778 22.5527 36.7488C23.1957 36.489 23.9523 36.0472 24.7641 35.4885C26.3989 34.3635 28.4082 32.6591 30.4359 30.6299L29.7285 29.923ZM21.0127 35.9269L20.0288 35.7482C19.907 36.4187 19.9162 37.2803 20.5319 37.8965L21.2393 37.1896L21.9466 36.4828C21.9897 36.5258 21.9835 36.5541 21.9745 36.5016C21.9638 36.44 21.9587 36.3142 21.9966 36.1057L21.0127 35.9269ZM21.2393 37.1896L20.5324 37.897C21.2091 38.5733 22.1786 38.5235 22.9102 38.3525C23.7032 38.1672 24.6116 37.7542 25.5631 37.1985C27.4793 36.0792 29.775 34.2592 32.0199 32.0127L31.3125 31.3058L30.6051 30.599C28.4454 32.7603 26.2839 34.4613 24.5544 35.4715C23.683 35.9805 22.9714 36.2843 22.4552 36.405C21.8776 36.5399 21.8488 36.385 21.9461 36.4823L21.2393 37.1896ZM31.3125 31.3058L32.0199 32.0127C34.2649 29.766 36.0836 27.4684 37.2019 25.5507C37.7572 24.5985 38.1697 23.6895 38.3547 22.8962C38.5253 22.1643 38.5749 21.1948 37.8989 20.5181L37.1914 21.2248L36.4839 21.9315C36.3869 21.8344 36.5417 21.8638 36.4069 22.442C36.2864 22.9588 35.9827 23.6711 35.4742 24.5432C34.4647 26.2742 32.7649 28.4376 30.6051 30.599L31.3125 31.3058ZM32.6348 21.381L33.3421 20.6741C32.7168 20.0485 31.8393 20.0864 31.2067 20.2257L31.4219 21.2023L31.637 22.1789C31.8359 22.1351 31.9511 22.1369 32.0004 22.1438C32.0402 22.1494 31.9896 22.1502 31.9275 22.088L32.6348 21.381ZM31.4219 21.2023L30.9596 22.0891C30.9595 22.089 30.8852 22.0521 30.8041 21.9714L31.5098 21.2629L32.2154 20.5543C32.084 20.4234 31.9492 20.3495 31.8841 20.3156L31.4219 21.2023ZM31.5098 21.2629L30.8024 21.9697C30.6387 21.8059 30.6283 21.6336 30.6278 21.6131C30.6275 21.5982 30.6294 21.6497 30.5833 21.79C30.4922 22.0673 30.2839 22.484 29.9345 23.0237C29.2447 24.0891 28.1214 25.4567 26.7233 26.8559L27.4307 27.5627L28.138 28.2695C29.6047 26.8017 30.8268 25.3254 31.6133 24.1107C32.002 23.5103 32.3146 22.9279 32.4833 22.4145C32.5671 22.1596 32.6337 21.8679 32.6274 21.5704C32.6209 21.2672 32.5338 20.8729 32.2171 20.556L31.5098 21.2629ZM27.4307 27.5627L26.7233 26.8558C25.3501 28.2301 24.0068 29.3395 22.95 30.033C22.4159 30.3834 21.9947 30.6012 21.704 30.7041C21.6349 30.7286 21.5806 30.7439 21.5401 30.7529C21.5202 30.7574 21.5051 30.7599 21.4945 30.7614C21.4839 30.7629 21.4791 30.7631 21.4797 30.7631C21.4802 30.763 21.4876 30.7628 21.501 30.7639C21.5143 30.7651 21.5352 30.7679 21.562 30.7745C21.6168 30.7881 21.6956 30.8181 21.7772 30.8805L21.1699 31.675L20.5627 32.4695C20.8973 32.7253 21.2756 32.7723 21.5559 32.7616C21.8394 32.7508 22.1194 32.6788 22.3717 32.5894C22.8786 32.4099 23.4525 32.0954 24.0472 31.7051C25.2479 30.9173 26.6967 29.7119 28.138 28.2695L27.4307 27.5627ZM21.1699 31.675L20.1776 31.5517C20.1089 32.1047 20.1636 32.8115 20.6869 33.3356L21.3945 32.6291L22.1022 31.9225C22.1247 31.9451 22.1405 31.9683 22.1503 31.987C22.1597 32.005 22.161 32.0137 22.1597 32.0077C22.156 31.9916 22.1462 31.9276 22.1623 31.7983L21.1699 31.675ZM21.3945 32.6291L20.6872 33.3359C21.2641 33.9133 22.0594 33.925 22.6574 33.819C23.2896 33.7069 23.9875 33.42 24.6932 33.0361C26.1165 32.2618 27.7831 30.9762 29.3831 29.375L28.6758 28.6682L27.9684 27.9613C26.4648 29.466 24.9494 30.6199 23.7375 31.2792C23.1255 31.6121 22.6424 31.7905 22.3083 31.8497C21.94 31.915 21.9837 31.804 22.1019 31.9222L21.3945 32.6291ZM28.6758 28.6682L29.3832 29.375C30.9832 27.7737 32.268 26.106 33.0418 24.6816C33.4255 23.9754 33.7122 23.2772 33.8243 22.6448C33.9302 22.0468 33.9189 21.2516 33.3423 20.6744L32.6348 21.381L31.9272 22.0877C31.8093 21.9697 31.9204 21.9267 31.855 22.2958C31.7956 22.6306 31.6172 23.1144 31.2844 23.7269C30.6254 24.94 29.472 26.4566 27.9684 27.9613L28.6758 28.6682ZM29.2051 21.6848L29.9119 20.9774C29.3495 20.4155 28.5813 20.5374 28.1855 20.6414L28.4395 21.6086L28.6934 22.5758C28.7444 22.5624 28.7799 22.5563 28.8017 22.5538C28.8239 22.5511 28.824 22.5532 28.8067 22.5516C28.7692 22.5482 28.6301 22.5239 28.4983 22.3922L29.2051 21.6848ZM28.4395 21.6086L27.9864 22.5001C27.9902 22.502 27.9654 22.4898 27.9332 22.4694C27.8986 22.4476 27.8436 22.4093 27.7846 22.3504L28.4912 21.6428L29.1978 20.9351C29.06 20.7975 28.9121 20.7271 28.8925 20.7171L28.4395 21.6086ZM28.4912 21.6428L27.7828 22.3486C27.5658 22.1307 27.5553 21.8877 27.5569 21.8239C27.5585 21.7604 27.5715 21.7549 27.5432 21.8315C27.4888 21.9787 27.358 22.229 27.1237 22.5768C26.6643 23.2587 25.9192 24.1514 24.9938 25.0775L25.7012 25.7844L26.4086 26.4912C27.3962 25.5027 28.232 24.5113 28.7824 23.6943C29.0529 23.2927 29.2842 22.8899 29.4192 22.5248C29.4855 22.3452 29.55 22.1186 29.5562 21.8748C29.5625 21.6307 29.5096 21.2481 29.1996 20.9369L28.4912 21.6428ZM25.7012 25.7844L24.9938 25.0775C24.0847 25.9873 23.2073 26.7235 22.53 27.1854C22.1857 27.4202 21.9304 27.5583 21.7713 27.6209C21.6898 27.6531 21.678 27.6474 21.7187 27.644C21.7497 27.6414 21.9586 27.6277 22.1805 27.793L21.583 28.5949L20.9856 29.3968C21.3116 29.6397 21.6686 29.6553 21.8863 29.6369C22.1137 29.6178 22.3273 29.5515 22.5045 29.4817C22.8628 29.3405 23.2586 29.1093 23.6567 28.8378C24.4642 28.2872 25.4376 27.4629 26.4085 26.4912L25.7012 25.7844ZM21.583 28.5949L20.5971 28.4276C20.5325 28.8083 20.5189 29.4317 20.9907 29.9041L21.6982 29.1974L22.4058 28.4908C22.5118 28.5969 22.5488 28.7102 22.5594 28.7678C22.5684 28.8162 22.5589 28.8214 22.5689 28.7622L21.583 28.5949ZM21.6982 29.1974L20.9909 29.9043C21.5089 30.4227 22.2063 30.3608 22.6033 30.2729C23.0551 30.1728 23.5394 29.9523 24.012 29.6803C24.9704 29.1287 26.0909 28.2422 27.1712 27.1611L26.4639 26.4543L25.7565 25.7474C24.7637 26.741 23.7808 27.5057 23.0143 27.9469C22.6246 28.1712 22.3411 28.2825 22.1709 28.3202C21.9458 28.37 22.167 28.2518 22.4056 28.4906L21.6982 29.1974ZM26.4639 26.4543L27.1712 27.1611C28.2516 26.0799 29.1374 24.9585 29.6885 23.9995C29.9604 23.5264 30.1806 23.042 30.2805 22.5901C30.3682 22.1932 30.4302 21.496 29.9124 20.9779L29.2051 21.6848L28.4977 22.3916C28.2594 22.1531 28.3775 21.9326 28.3277 22.1583C28.2899 22.3289 28.1786 22.6129 27.9545 23.003C27.5136 23.7702 26.7493 24.7539 25.7565 25.7474L26.4639 26.4543Z" fill="" mask="url(#path-2-inside-1_1616_211)"/>
<path d="M22.9551 9.9184L0 32.8901V24.3881L18.707 5.66742L22.9551 9.9184Z" fill=""/>
</svg>
