<svg viewBox="0 0 56 40" fill="none" xmlns="http://www.w3.org/2000/svg">
<path d="M54.1111 1.71983C53.0441 0.659634 51.5458 0 49.9131 0H5.93835C4.30546 0 2.80729 0.659634 1.73859 1.71983C0.668143 2.77489 0 4.25604 0 5.8718V34.1281C0 35.744 0.668143 37.2251 1.73859 38.2802C2.80729 39.3404 4.30546 40.0016 5.93835 40H49.9131C51.5459 40.0017 53.0441 39.3404 54.1111 38.2802C55.1832 37.2251 55.8513 35.744 55.8513 34.1281V5.8718C55.8513 4.25604 55.1832 2.77489 54.1111 1.71983ZM51.4539 34.1282C51.4539 34.5578 51.2851 34.9242 51.0022 35.2071C50.7176 35.4867 50.3443 35.652 49.9131 35.652H5.93835C5.50539 35.652 5.13385 35.4866 4.85088 35.2071C4.56628 34.9242 4.40091 34.5578 4.39753 34.1282V5.8718C4.40091 5.44223 4.56628 5.07581 4.85088 4.79459C5.13385 4.51501 5.50539 4.348 5.93835 4.348H49.9131C50.3443 4.348 50.7176 4.51501 51.0022 4.79459C51.2851 5.07581 51.4539 5.44234 51.4539 5.8718V34.1282Z" fill="current"/>
<path d="M22.1545 8.71149C19.0114 8.71149 16.1412 9.98135 14.0822 12.0198C12.0215 14.0533 10.7381 16.8928 10.7397 20.0017C10.738 23.1073 12.0215 25.9486 14.0822 27.9819C16.1412 30.0188 19.0115 31.2886 22.1545 31.2869C25.2992 31.2886 28.1695 30.0188 30.2285 27.9819C32.2892 25.9485 33.5743 23.1072 33.5709 20.0017C33.5743 16.8928 32.2892 14.0533 30.2285 12.0198C28.1694 9.98124 25.2992 8.71149 22.1545 8.71149ZM27.4075 22.1919C26.978 23.1992 26.2503 24.0651 25.3401 24.6736C24.4265 25.2821 23.3459 25.6332 22.1545 25.635C21.3602 25.6332 20.6188 25.4765 19.9386 25.1935C18.9193 24.7674 18.0433 24.0481 17.4297 23.1482C16.8127 22.2465 16.4564 21.1761 16.4564 20.0017C16.4564 19.2143 16.6149 18.4797 16.903 17.8098C17.3342 16.8008 18.0603 15.9349 18.9705 15.3264C19.8841 14.7179 20.9664 14.3668 22.1545 14.3668C22.9505 14.3668 23.6919 14.5236 24.3737 14.8082C25.393 15.2327 26.2673 15.9519 26.8826 16.8518C27.498 17.7535 27.8541 18.8239 27.8541 20.0016C27.8541 20.7857 27.6956 21.5187 27.4075 22.1919Z" fill="current"/>
<path d="M43.53 8.69611C42.1954 8.69611 41.1113 9.76656 41.1113 11.0857C41.1113 12.4084 42.1954 13.4771 43.53 13.4771C44.8662 13.4771 45.9486 12.4084 45.9486 11.0857C45.9486 9.76656 44.8662 8.69611 43.53 8.69611Z" fill="current"/>
</svg>
