<svg viewBox="0 0 40 40"  xmlns="http://www.w3.org/2000/svg">
<path d="M32.7238 31.3487L31.3264 32.7312L1.39731 2.76504L2.79461 1.38251L32.7238 31.3487Z" />
<path d="M35.19 31.0364L30.4218 30.4346L30.998 35.184L37.904 37.9262L35.19 31.0364Z" />
<rect width="3.93754" height="17.6627" transform="matrix(0.916535 0.399955 -0.403117 0.915148 32.5942 8.25757)" />
<rect width="1.97024" height="7.84419" transform="matrix(0.998984 -0.0450723 0.0454966 0.998964 23.5039 8.34637)" />
<rect width="1.96114" height="7.88058" transform="matrix(0.110582 -0.993867 0.99398 0.109561 8.81995 26.49)" />
<rect width="2.14288" height="4.01816" transform="matrix(0.90761 0.419814 -0.423068 0.906098 30.4546 4.02228)" />
<rect width="1.96877" height="7.85006" transform="matrix(0.916714 -0.399543 0.402703 0.91533 16.2727 5.09851)" />
<rect width="1.07591" height="4.31579" transform="matrix(0.448689 -0.893688 0.895366 0.445331 5.77161 17.0632)" />
<rect width="3.92607" height="17.7143" transform="matrix(0.46759 0.883945 -0.885749 0.464165 23.4323 25.9067)" />
</svg>
