<svg viewBox="0 0 81 80" fill="none" xmlns="http://www.w3.org/2000/svg">
<path d="M0.498779 41.0959L0.498848 80H80.4988V41.0959C80.4988 15.8904 73.27 1.64384 73.27 1.64384C73.27 1.64384 65.5592 42.7397 60.2581 41.0959C54.957 39.4521 55.4389 0 55.4389 0C55.4389 0 46.7643 31.2329 40.4994 33.9726C34.2344 36.7123 33.7525 9.31507 33.7525 9.31507C33.7525 9.31507 27.0056 31.7808 20.7406 32.8767C14.4757 33.9726 13.0297 0 13.0297 0C3.8734 19.726 0.498744 25.2055 0.498779 41.0959Z" fill=""/>
<path d="M40.8212 9.36613C39.8666 14.3749 45.1203 5.36086 44.6565 3.90805C44.1927 2.45524 44.2073 1.02738 43.4689 0.187897C42.7305 -0.651564 41.7759 4.35706 40.8213 9.36574L40.8212 9.36613Z" fill=""/>
</svg>
