<svg viewBox="0 0 43 40" fill="none" xmlns="http://www.w3.org/2000/svg">
<path d="M22.6235 9.44434L28.0822 38.1864L29.7202 37.8753L24.2616 9.13324L22.6235 9.44434Z" />
<path d="M21.9682 9.56879L20.5706 7.57134L21.379 2.89202" />
<path d="M24.9168 9.00882L25.4849 6.63806L23.0172 2.58094" />
<path d="M21.3791 2.89205L21.887 1.09842L23.0172 2.58095" />
<path d="M8.43436 34.6821L15.7272 30.4716L15.0843 29.3581L7.7915 33.5687M8.43436 34.6821L7.7915 33.5687M8.43436 34.6821L7.73102 36.0779L6.18198 36.3949L5.18198 34.6629L6.23102 33.4799L7.7915 33.5687M40.323 15.5289L36.0337 16.5207L16.7077 27.6786L17.9934 29.9055L37.3194 18.7476L40.323 15.5289ZM19.2791 32.1324L20.0867 32.4085L18.142 33.5313L17.3343 33.2552L15.4058 29.9149L13.4772 26.5745L13.642 25.737L15.5867 24.6142L15.422 25.4517L17.3505 28.792L19.2791 32.1324Z" />
<rect x="15.1233" y="24.8818" width="9" height="2" transform="rotate(60 15.1233 24.8818)" />
<rect x="7.34705" y="33.4128" width="9" height="2" transform="rotate(-30 7.34705 33.4128)" />
<path d="M8.32812 7.82611C19.021 0.418308 33.6946 3.08153 41.1025 13.7744C41.3074 14.0701 41.5039 14.3693 41.6934 14.6708L39.0889 15.4335C31.4829 5.56381 17.3887 3.2895 7.03027 10.4658C4.04698 12.5327 1.68881 15.1653 0 18.1191C1.67327 14.097 4.4813 10.4912 8.32812 7.82611Z" />
</svg>
