<svg viewBox="0 0 40 40" fill="none" xmlns="http://www.w3.org/2000/svg">
<path d="M3.2 26.0816L0 17.8163L9.06667 23.8776L13.8667 33.7959L3.2 26.0816Z" fill="#current"/>
<path d="M34.6667 11.2041L27.7333 25.5306V36L31.4667 33.7959L40 13.4082L39.4667 9L34.6667 11.2041Z" fill="#current"/>
<path d="M12 10.4314L17.8056 0L20.9722 10.4314L20.4444 23.0588L16.75 28L14.6389 25.2549L12 10.4314Z" fill="#current"/>
<path d="M27.3056 11.5294L27.8333 4.39216L31 8.23529L29.9444 15.3726L27.3056 11.5294Z" fill="#current"/>
<path d="M21.4324 25.7059L24 22V27.8235L21.4324 36.8235L18.8649 40V35.7647L21.4324 25.7059Z" fill="#current"/>
<path d="M5 7.70588V4L8.08108 6.64706V10.3529L5 7.70588Z" fill="#current"/>
</svg>
