<?xml version="1.0" encoding="utf-8"?>
<svg  xmlns="http://www.w3.org/2000/svg" xmlns:xlink="http://www.w3.org/1999/xlink" 
	 viewBox="0 0 512 512"  xml:space="preserve">
<g>
	<path class="st0" d="M492.722,153.414c-7.804-47.631-32.629-86.382-67.581-112.758C390.198,14.239,345.316,0,297.02,0
		c-30.611,0-62.616,5.729-94.417,17.702C132.725,43.938,92.25,88.91,69.592,131.839c-22.732,42.937-28.174,83.78-29.749,103.346
		l-0.057,0.656l0.033,0.64v0.172c0.016,0.426,0.049,1.608,0.049,3.356c0,4.727-0.238,13.623-1.568,22.864
		c-1.271,9.224-3.89,18.826-7.377,24.348l0.033-0.04c-1.789,2.806-2.774,6.286-2.749,9.503c0.008,3.611,1.066,6.73,2.371,9.273
		c2.339,4.465,5.433,7.649,8.633,10.62c4.809,4.382,10.144,8.124,14.255,11.243c0.968,0.73,1.855,1.412,2.643,2.044
		c-2.405,2.823-6.385,6.556-9.946,9.478c-2.142,1.798-4.136,3.356-5.572,4.448l-1.682,1.28l-0.443,0.32l-0.124,0.091l-2.724,1.969
		l-1.149,3.168c-0.065,0.196-2.216,6.139-4.391,14.271c-2.158,8.182-4.44,18.374-4.481,28.157c0.041,3.718,0.345,7.468,1.502,11.26
		c-1.198,1.444-2.249,2.97-2.971,4.554c-1.928,4.096-2.692,8.322-3.02,12.877c-0.164,2.388-0.673,7.304-1.33,13.13
		c-1.001,8.797-2.339,19.893-3.439,29.527c-0.55,4.826-1.042,9.29-1.395,12.958c-0.353,3.734-0.591,6.409-0.607,8.749
		c-0.017,4.07,1.264,8.066,3.405,11.382c3.234,5.014,8.141,8.584,13.934,10.948c5.827,2.363,12.664,3.562,20.533,3.57
		c3.406-0.024,7.394-0.484,12.843-1.198c18.76-2.536,52.629-8.715,84.988-14.616c16.158-2.946,31.899-5.826,45.021-8.108
		c13.089-2.298,23.725-4.013,29.043-4.596c8.396-0.911,16.536-3.873,23.479-9.076c10.488-7.83,17.849-20.049,22.576-36.028
		c3.537-11.948,5.728-26.195,6.615-43.182c7.23,3.053,15.379,5.236,24.611,5.958l0.033,0.008c6.122,0.484,12.244,0.747,18.35,0.747
		c46.991,0.024,91.708-15.256,124.625-47.287c32.958-32.005,53.334-80.374,53.269-143.828
		C497.663,192.895,496.071,173.782,492.722,153.414z M244.9,443.5c-3.151,6.45-6.672,10.628-10.373,13.394
		c-3.726,2.749-7.747,4.283-12.835,4.874c-7.386,0.821-20.245,2.987-36.216,5.811c-23.872,4.218-54.286,9.913-80.383,14.526
		c-13.032,2.314-24.99,4.349-34.435,5.81c-4.71,0.722-8.798,1.296-12.023,1.682c-3.184,0.386-5.646,0.566-6.426,0.55
		c-7.476,0.033-12.26-1.625-14.419-3.02c-1.034-0.64-1.453-1.149-1.592-1.362c0.008-0.492,0.074-1.617,0.205-3.176
		c0.542-6.508,1.994-18.892,3.39-30.717c1.395-11.916,2.724-23.11,3.11-28.65c0.123-1.879,0.386-3.266,0.632-4.103l0.074-0.188
		l0.812,0.082l0.008-0.066c0.608,0.05,1.214,0.23,1.814,0.222c4.899,0,11.21,0,18.26,0l-1.002,7.64
		c-0.541,4.136,2.38,7.927,6.524,8.469c4.136,0.542,7.936-2.38,8.478-6.516l1.247-9.593c7.041,0,14.329,0,21.444,0l-0.862,6.623
		c-0.542,4.144,2.38,7.944,6.524,8.486c4.136,0.541,7.936-2.38,8.477-6.524l1.116-8.584c7.46,0,14.247,0,19.631,0
		c8.058,0.057,15.526-2.921,20.926-7.526c8.174-6.959,12.351-16.397,14.969-25.719c2.577-9.388,3.463-18.958,3.472-27.09
		c0.016-3.52,0.64-5.113,1.198-6.024c0.451-0.698,0.985-1.304,2.314-2.134c1.945-1.231,5.778-2.618,11.399-3.685
		c5.597-1.083,12.884-1.912,21.616-2.74l0.214-0.017l1.182-0.066c2.027,0.017,3.627,0.41,5.482,1.247
		c3.2,1.444,7.123,4.809,11.579,9.758c6.598,7.205,14.181,17.422,24.891,26.614C254.937,411.051,250.891,431.354,244.9,443.5z
		 M429.154,338.965c-28.222,27.458-66.99,41.065-109.386,41.098c-5.474,0-11.021-0.246-16.626-0.689l0.033,0.008
		c-11.3-0.96-19.581-4.316-26.786-8.986c-10.792-6.992-18.916-17.464-27.582-27.443c-4.374-4.957-8.912-9.831-14.6-13.795
		c-5.63-3.955-12.827-6.877-20.836-6.836c-1.034,0-2.208,0.057-3.463,0.18c-0.033,0-0.066,0.008-0.098,0.008
		c-0.041,0.008-0.074,0.008-0.115,0.008v0.008c-15.822,1.584-27.951,2.815-38.341,7.493c-5.179,2.364-10.078,6.056-13.286,11.292
		c-3.234,5.22-4.481,11.309-4.465,17.521c0.041,8.608-1.477,19.926-4.899,27.656c-1.674,3.89-3.734,6.762-5.712,8.396
		c-2.035,1.608-3.742,2.371-6.909,2.428c-4.415,0-9.782,0-15.683,0l1.05-8.05c0.541-4.144-2.38-7.936-6.524-8.478
		c-4.144-0.541-7.936,2.38-8.478,6.516l-1.305,10.012c-7.025,0-14.312,0-21.443,0l0.918-7.024c0.542-4.136-2.38-7.936-6.524-8.478
		c-4.136-0.542-7.936,2.38-8.478,6.524l-1.174,8.978c-7.911,0-15.026,0-20.623,0c-0.205-0.968-0.402-2.428-0.377-4.267
		c-0.041-6.163,1.789-15.33,3.742-22.51c0.969-3.62,1.946-6.787,2.667-9.036c0.066-0.197,0.091-0.279,0.156-0.46
		c2.462-1.888,6.212-4.858,10.102-8.321c3.282-2.938,6.64-6.172,9.52-9.7c1.444-1.789,2.782-3.635,3.94-5.827
		c1.116-2.208,2.232-4.801,2.281-8.535c0-1.641-0.263-3.48-1.026-5.367l0.016,0.033c-1.337-3.151-2.905-4.792-4.382-6.368
		c-2.626-2.65-5.474-4.792-8.486-7.066c-4.481-3.34-9.282-6.836-12.483-9.856c-1.419-1.33-2.413-2.495-2.971-3.299
		c5.351-9.652,7.895-20.616,9.405-30.759c1.551-10.783,1.789-20.549,1.789-25.965c0-1.674-0.025-2.872-0.041-3.595
		c1.469-18.063,6.663-55.574,27.229-94.342c20.804-39.112,56.691-79.489,121.4-103.928c29.429-11.079,58.833-16.29,86.719-16.29
		c44.028,0,84.207,12.975,114.949,36.232c30.726,23.29,52.203,56.675,59.186,98.881c3.176,19.294,4.662,37.234,4.662,53.827
		C475.751,269.742,457.336,311.472,429.154,338.965z"/>
	<path class="st0" d="M130.066,204.606c-18.407-8.715-36.125,1.871-38.932,14.968c-4.488,20.968,10.48,26.951,17.973,55.403
		c7.492,28.452,33.516,36.166,49.412,14.977C180.98,260.009,158.518,218.082,130.066,204.606z"/>
</g>
</svg>
