<svg viewBox="0 0 20 20" fill="none" xmlns="http://www.w3.org/2000/svg">
<path d="M1 9.53931H18.4451M16.9282 10.5655L18.4451 9.53931L16.9282 8.51312" />
<path d="M3.05231 9.02618L2.53922 8.51309C2.12874 8.10262 2.02612 8 2.02612 8L3.50704 9.48092M3.5654 9.53928L3.50704 9.48092M3.50704 9.48092C2.32231 10.759 2.02612 11.0786 2.02612 11.0786M5.10468 9.48092C4.28373 8.29618 4.07849 8 4.07849 8M5.10468 9.53928C4.28373 10.7707 4.07849 11.0786 4.07849 11.0786" />
<path d="M0.398409 6.00202L17.2491 1.48689M16.0494 2.87073L17.2491 1.48689L15.5182 0.88829" />
<path d="M2.24803 4.97519L1.61962 4.61238C1.11689 4.32213 0.991211 4.24957 0.991211 4.24957L2.80496 5.29674M2.87643 5.33801L2.80496 5.29674M2.80496 5.29674C1.99139 6.83793 1.788 7.22323 1.788 7.22323M4.34816 4.88324C3.24855 3.95135 2.97365 3.71838 2.97365 3.71838M4.36326 4.93961C3.889 6.34155 3.77044 6.69203 3.77044 6.69203" />
<path d="M0.398344 13.4869L17.2491 18.002M15.5182 18.6006L17.2491 18.002L16.0494 16.6182" />
<path d="M2.51359 13.5224L2.15077 12.894C1.86053 12.3912 1.78796 12.2656 1.78796 12.2656L2.83513 14.0793M2.8764 14.1508L2.83513 14.0793M2.83513 14.0793C1.35997 15.0072 0.991176 15.2392 0.991176 15.2392M4.37833 14.4928C3.89199 13.136 3.7704 12.7968 3.7704 12.7968M4.36322 14.5492C3.25153 15.5262 2.97361 15.7704 2.97361 15.7704" />
</svg>
