<svg viewBox="0 0 176 190" fill="none" xmlns="http://www.w3.org/2000/svg">
<path d="M111.141 0L64.9806 11.9006V48.4415L32.9256 56.1339V92.6781L0.870117 100.371V143.926L65.8594 190L68.2299 189.431L175.13 162.715V46.0772L110.141 0ZM62.9463 174.764L11.6177 138.375V113.075L62.9463 149.739V174.764ZM67.8225 143.315L17.5634 107.418L39.2394 102.215L89.4988 138.117L67.8225 143.315ZM95.0018 132.138L43.6732 95.4746V68.8383L95.0018 105.502V132.138ZM99.8779 99.0791L49.6185 63.1772L71.2911 57.9782L121.554 93.883L99.8779 99.0791ZM127.057 87.9051L75.7283 51.241V24.602L127.057 61.2691V87.9051ZM131.933 54.8488L81.6702 18.9469L107.906 11.587L158.447 47.4243L131.933 54.8488Z" fill="current"/>
</svg>
