<svg viewBox="0 0 109 81" fill="none" xmlns="http://www.w3.org/2000/svg">
<path d="M22.279 14.0299C24.3602 11.376 27.7464 11.376 29.8281 14.0299C35.5893 21.3768 44.9637 21.3768 50.7249 14.0299C51.7332 12.7442 53.0737 12.0361 54.4996 12.0361C55.9255 12.0361 57.266 12.7445 58.2743 14.0299C64.0355 21.3768 73.4099 21.3768 79.1711 14.0299C80.1794 12.7442 81.5199 12.0361 82.9458 12.0361C84.3717 12.0361 85.7122 12.7445 86.7205 14.0299C89.5114 17.589 93.2221 19.5491 97.1688 19.5491C101.116 19.5491 104.826 17.589 107.617 14.0299C109.46 11.6796 109.46 7.86923 107.617 5.51917C105.774 3.16881 102.786 3.16881 100.943 5.51917C99.9352 6.80493 98.5947 7.51296 97.1688 7.51296C95.7429 7.51296 94.4024 6.80463 93.3944 5.51947C90.6037 1.96039 86.8927 0.000300903 82.946 0C82.9456 0 82.9458 0 82.9458 0C78.9991 0 75.2882 1.96039 72.4972 5.51917C70.4161 8.17344 67.0291 8.17284 64.9484 5.51947C62.1577 1.96039 58.4467 0.000300903 54.5001 0C54.4996 0 54.4998 0 54.4998 0C50.5532 0 46.8422 1.96039 44.0513 5.51917C41.9701 8.17344 38.5831 8.17314 36.5024 5.51917C30.741 -1.82799 21.3665 -1.82799 15.6053 5.51917C13.5242 8.17314 10.1377 8.17314 8.05601 5.51917C6.21292 3.16881 3.22496 3.16881 1.38211 5.51917C-0.460742 7.86953 -0.460742 11.6799 1.38234 14.0299C7.14308 21.3768 16.5173 21.3768 22.279 14.0299Z" fill=""/>
<path d="M100.943 36.2112C99.9352 37.497 98.5947 38.205 97.1688 38.205C95.7429 38.205 94.4024 37.4967 93.3944 36.2115C90.6037 32.6525 86.8927 30.6924 82.946 30.6921C82.9456 30.6921 82.9458 30.6921 82.9458 30.6921C78.9991 30.6921 75.2882 32.6525 72.4972 36.2112C70.4161 38.8655 67.0291 38.8649 64.9484 36.2115C62.1577 32.6525 58.4467 30.6924 54.5001 30.6921C54.4996 30.6921 54.4998 30.6921 54.4998 30.6921C50.5532 30.6921 46.8422 32.6525 44.0513 36.2112C41.9701 38.8655 38.5831 38.8652 36.5024 36.2112C30.741 28.8641 21.3665 28.8641 15.6053 36.2112C13.5242 38.8652 10.1377 38.8652 8.05601 36.2112C6.21292 33.8609 3.22496 33.8609 1.38211 36.2112C-0.460742 38.5616 -0.460742 42.3719 1.38234 44.722C7.14355 52.0689 16.5178 52.0689 22.2795 44.722C24.3606 42.068 27.7469 42.068 29.8285 44.722C35.5897 52.0689 44.9642 52.0689 50.7254 44.722C51.7337 43.4362 53.0742 42.7282 54.5001 42.7282C55.926 42.7282 57.2665 43.4365 58.2747 44.722C64.0359 52.0689 73.4104 52.0689 79.1716 44.722C80.1799 43.4362 81.5204 42.7282 82.9463 42.7282C84.3722 42.7282 85.7127 43.4365 86.7209 44.722C89.5119 48.2811 93.2226 50.2412 97.1692 50.2412C101.116 50.2412 104.827 48.2811 107.618 44.722C109.461 42.3716 109.461 38.5613 107.618 36.2112C105.774 33.8609 102.786 33.8609 100.943 36.2112Z" fill=""/>
<path d="M100.943 66.9035C99.9352 68.1892 98.5947 68.8972 97.1688 68.8972C95.7429 68.8972 94.4024 68.1889 93.3944 66.9037C90.6037 63.3447 86.8927 61.3846 82.946 61.3843C82.9456 61.3843 82.9458 61.3843 82.9458 61.3843C78.9991 61.3843 75.2882 63.3447 72.4972 66.9035C70.4161 69.5577 67.0291 69.5571 64.9484 66.9037C62.1577 63.3447 58.4467 61.3846 54.5001 61.3843C54.4996 61.3843 54.4998 61.3843 54.4998 61.3843C50.5532 61.3843 46.8422 63.3447 44.0513 66.9035C41.9701 69.5574 38.5831 69.5577 36.5024 66.9035C30.741 59.5563 21.3665 59.5563 15.6053 66.9035C13.5242 69.5574 10.1377 69.5574 8.05601 66.9035C6.21292 64.5531 3.22496 64.5531 1.38211 66.9035C-0.460742 69.2538 -0.460742 73.0641 1.38234 75.4142C7.14355 82.7611 16.5178 82.7611 22.2795 75.4142C24.3606 72.7602 27.7469 72.7602 29.8285 75.4142C35.5897 82.7611 44.9642 82.7611 50.7254 75.4142C51.7337 74.1284 53.0742 73.4204 54.5001 73.4204C55.926 73.4204 57.2665 74.1287 58.2747 75.4142C64.0359 82.7611 73.4104 82.7611 79.1716 75.4142C80.1799 74.1284 81.5204 73.4204 82.9463 73.4204C84.3722 73.4204 85.7127 74.1287 86.7209 75.4142C89.5119 78.9733 93.2226 80.9334 97.1692 80.9334C101.116 80.9334 104.827 78.9733 107.618 75.4142C109.461 73.0638 109.461 69.2535 107.618 66.9035C105.774 64.5531 102.786 64.5531 100.943 66.9035Z" fill=""/>
</svg>
