<?xml version="1.0" encoding="iso-8859-1"?>
<!-- Uploaded to: SVG Repo, www.svgrepo.com, Generator: SVG Repo Mixer Tools -->
<!DOCTYPE svg PUBLIC "-//W3C//DTD SVG 1.1//EN" "http://www.w3.org/Graphics/SVG/1.1/DTD/svg11.dtd">
<svg fill="#000000" version="1.1" id="Capa_1" xmlns="http://www.w3.org/2000/svg" xmlns:xlink="http://www.w3.org/1999/xlink" 
	 width="800px" height="800px" viewBox="0 0 31.863 31.863"
	 xml:space="preserve">
<g>
	<g>
		<path d="M21.859,7.688c-1.538,0-2.942,0.874-3.62,2.256l-0.699,1.425V9.748c0-1.093,0.336-2.148,0.965-3.042
			c0.367-0.523,0.584-1.158,0.584-1.844c0-1.782-1.441-3.227-3.225-3.227s-3.241,1.445-3.241,3.227c0,0.665,0.213,1.284,0.559,1.798
			c0.587,0.872,0.903,1.9,0.903,2.951v1.363l-0.474-0.991c-0.67-1.402-2.086-2.295-3.641-2.295H1.102
			c-0.394,0-0.758,0.21-0.955,0.551C-0.049,8.58-0.049,9,0.148,9.341c0.553,0.959,1.339,1.762,2.285,2.336l6.462,3.92
			c-0.176-0.304-0.318-0.618-0.416-0.925c-0.235-0.754-0.271-1.382-0.249-1.773c0.037-1.823,1.22-2.637,2.396-2.523
			c0.72,0.071,1.323,0.489,1.655,1.073l0.686,1.22c0.008-0.005,1.213,0.96,2.967,1.438c1.916-0.609,2.975-1.443,2.98-1.438
			l0.68-1.209c0.578-1.031,1.886-1.398,2.92-0.818c0.629,0.354,1.15,1.169,1.141,2.258c-0.017,0.63-0.016,1.017-0.248,1.771
			c-0.098,0.298-0.234,0.603-0.405,0.902l6.429-3.896c0.946-0.573,1.731-1.376,2.286-2.336c0.196-0.341,0.196-0.761,0-1.102
			c-0.197-0.341-0.562-0.551-0.955-0.551H21.859z"/>
		<path d="M15.943,21.38c0.149-0.043,1.101-0.304,1.411-0.386c-0.286-0.139-1.249-0.574-1.411-0.645
			c-0.166,0.07-1.126,0.506-1.413,0.645C14.841,21.076,15.792,21.337,15.943,21.38z"/>
		<path d="M16.909,26.451c-0.316-0.021-1.62-0.021-1.934,0c-0.163,0.01-0.316,0.002-0.5,0.025c-0.128,0.017-0.224,0.035-0.392,0.053
			v1.978c0,0.951,0.776,1.722,1.729,1.722c0.951,0,1.727-0.771,1.727-1.722v-2.008c0-0.009-0.1-0.017-0.153-0.022
			C17.2,26.454,17.071,26.462,16.909,26.451z"/>
		<path d="M10.639,25.48c-0.126,0.26-0.213,0.529-0.244,0.793c-0.115,0.764,0.098,1.355,0.306,1.761
			c0.45,0.809,0.876,1.075,0.876,1.075s-0.031-0.121-0.055-0.344c-0.275-2.572,1.504-2.826,1.599-2.854
			c-1.444-0.24-2.156-0.49-2.401-0.59C10.692,25.374,10.664,25.426,10.639,25.48z"/>
		<polygon points="19.478,21.38 19.478,21.368 19.478,21.368 		"/>
		<path d="M22.377,19.115c-0.64-1.035-2.01-1.871-2.307-2.039c0.455-0.297,0.879-0.628,1.246-1.005
			c1.363-1.394,1.385-2.884,1.374-3.205c-0.021-0.319-0.031-0.49-0.031-0.49c-0.06-0.775-0.738-1.354-1.514-1.295
			c-0.774,0.061-1.354,0.739-1.293,1.514c-0.015-0.005-0.003,0.278-0.181,0.581c-0.099,0.15-0.239,0.348-0.535,0.581
			c-0.294,0.23-0.715,0.5-1.254,0.762c-0.553,0.271-1.208,0.535-1.941,0.818c-0.585-0.225-1.117-0.438-1.588-0.651
			c-0.124-0.055-0.241-0.111-0.355-0.167c-0.541-0.262-0.962-0.533-1.254-0.762c-0.296-0.233-0.438-0.431-0.537-0.581
			c-0.178-0.303-0.166-0.585-0.179-0.581c0.062-0.775-0.519-1.452-1.295-1.514c-0.773-0.059-1.451,0.52-1.513,1.295
			c0,0-0.011,0.171-0.03,0.49c-0.012,0.321,0.024,0.823,0.221,1.429c0.203,0.602,0.819,1.725,2.399,2.781
			c1.85,0.933,4.092,2.008,4.13,1.994c0.316,0.132,3.92,1.568,3.611,2.252c-0.041,0.135-0.283,0.221-0.619,0.332
			c-0.347,0.129-0.755,0.233-1.188,0.336c-0.242,0.059-0.492,0.115-0.744,0.176c2.065,0.676,3.625,1.509,4.263,1.939
			c0.027,0.017,0.05,0.033,0.073,0.051c0.144-0.092,0.288-0.197,0.434-0.318C22.534,23.178,23.728,21.301,22.377,19.115z"/>
		<path d="M20.554,24.518c-1.598-1.131-7.278-2.744-7.6-2.861c-0.334-0.112-0.566-0.267-0.61-0.334
			c-0.062-0.18,0.073-0.295,0.104-0.324c0.331-0.352,1.729-1.155,2.383-1.45c-1.612-0.713-3.341-1.456-4.003-1.839
			c-0.453,0.343-0.985,0.75-1.322,1.409c-0.584,1.146-0.584,2.372-0.584,2.372c0,0.804,0.539,1.853,1.191,2.35
			c0.171,0.143,0.339,0.262,0.505,0.365c0.467,0.289,0.908,0.441,1.3,0.561c1.083,0.316,1.995,0.43,2.861,0.524
			c0.821,0.1,1.613,0.196,2.368,0.288c0.251,0.029,2.331,0.255,2.915,1.146c0.214,0.327,0.322,0.748,0.346,1.123
			c0.029,0.381-0.012,0.702-0.045,0.92c-0.026,0.223-0.058,0.344-0.058,0.344s0.487-0.236,0.878-1.075
			C22.271,25.686,20.567,24.527,20.554,24.518z"/>
	</g>
</g>
</svg>