<svg viewBox="0 0 49 40" fill="none" xmlns="http://www.w3.org/2000/svg">
<path d="M24.1881 14.5666C21.917 14.5673 19.8752 15.4895 18.3824 16.993C16.8933 18.4991 15.9734 20.567 15.9712 22.8671C15.9734 25.1689 16.8933 27.2359 18.3824 28.7395C19.8752 30.2447 21.917 31.1675 24.1881 31.1675C26.4566 31.1675 28.5006 30.2447 29.9925 28.7395C31.4833 27.236 32.4032 25.1689 32.404 22.8671C32.4033 20.567 31.4824 18.4991 29.9925 16.993C28.5006 15.4895 26.4566 14.5673 24.1881 14.5666ZM24.1881 27.9846C21.3859 27.9846 19.1153 25.6948 19.1153 22.867C19.1153 20.0401 21.3859 17.7494 24.1881 17.7494C26.9902 17.7494 29.2608 20.0401 29.2608 22.867C29.2608 25.6949 26.9902 27.9846 24.1881 27.9846Z" fill="current"/>
<path d="M46.9378 8.62328C46.0549 7.72935 44.811 7.1667 43.4526 7.1667H38.1232C37.6938 7.1684 37.2934 6.9114 37.109 6.49651L35.5124 2.92252C34.7227 1.15177 32.9674 0 31.019 0H17.3575C15.4096 0 13.6538 1.15177 12.8623 2.92252L11.2674 6.49651C11.0829 6.9114 10.682 7.1684 10.2534 7.1667H4.92381C3.56587 7.1667 2.3198 7.72926 1.43523 8.62328C0.550281 9.51465 0 10.7603 0 12.1171V35.0514C0 36.409 0.550281 37.6538 1.43523 38.5451C2.3197 39.4391 3.56625 40.0017 4.92381 40H26.1408H43.4526C44.8111 40.0017 46.055 39.439 46.9378 38.5451C47.8266 37.6538 48.3764 36.409 48.3764 35.0514V12.1171C48.3764 10.7603 47.8266 9.51295 46.9378 8.62328ZM32.0737 30.8029C30.0635 32.8358 27.2657 34.0995 24.1882 34.0995C21.1094 34.0995 18.3129 32.8359 16.3022 30.8029C14.2877 28.7753 13.0403 25.9594 13.0421 22.867C13.0403 19.7746 14.2878 16.9613 16.3022 14.9303C18.3128 12.899 21.109 11.6338 24.1882 11.6363C27.2657 11.6338 30.0635 12.899 32.0737 14.9303C34.0883 16.9614 35.3365 19.7746 35.3339 22.867C35.3365 25.9594 34.0883 28.7753 32.0737 30.8029ZM43.649 16.0829H40.2671V12.7001H43.649V16.0829Z" fill="current"/>
</svg>
