<svg viewBox="0 0 167 167" fill="none" xmlns="http://www.w3.org/2000/svg">
<g clip-path="url(#clip0_1705_98)">
<path d="M30.8455 54.1367L30.6993 54.4182L35.8235 56.9933L40.9855 60.0182L41.1642 59.7025C41.4735 59.1499 41.7918 58.6082 42.1193 58.0742L32.1322 51.9402C31.6886 52.6585 31.2607 53.3924 30.8455 54.1367Z" fill="current"/>
<path d="M36.0965 83.4501C36.0965 83.0134 36.105 82.574 36.1158 82.1376L22.0548 81.8587C22.0379 82.39 22.03 82.9214 22.03 83.4501L22.0379 84.4602L36.1053 84.2841L36.0965 83.4501Z" fill="current"/>
<path d="M30.4615 112.182C30.8777 112.953 31.3132 113.716 31.7662 114.473L41.8215 108.45C41.4597 107.844 41.112 107.232 40.7777 106.611L30.4615 112.182Z" fill="current"/>
<path d="M126.19 60.334L136.493 54.7388C136.074 53.9707 135.641 53.2107 135.192 52.4583L125.136 58.4846C125.503 59.0952 125.854 59.7104 126.19 60.334Z" fill="current"/>
<path d="M83.5479 36.0971C83.9694 36.0971 84.3904 36.1023 84.8099 36.1157L85.1119 22.0535C84.5923 22.0378 84.0701 22.03 83.5483 22.03L82.4836 22.0404L82.694 36.1053L83.5479 36.0971Z" fill="current"/>
<path d="M60.3601 40.795L54.7822 30.4863C54.0108 30.9019 53.2486 31.336 52.4951 31.7858L58.5169 41.8446C59.1239 41.4819 59.7394 41.1319 60.3601 40.795Z" fill="current"/>
<path d="M115.022 32.1096C114.317 31.6781 113.598 31.2574 112.833 30.8311L109.909 35.9105L107.162 41.0898C107.75 41.416 108.327 41.7552 108.895 42.1026L115.022 32.1096Z" fill="current"/>
<path d="M106.578 126.239L112.137 136.561C112.911 136.145 113.676 135.711 114.429 135.261L108.421 125.195C107.814 125.558 107.201 125.905 106.578 126.239Z" fill="current"/>
<path d="M124.846 108.981L134.815 115.147C135.277 114.4 135.721 113.642 136.09 112.976L136.275 112.648L125.913 107.163C125.57 107.779 125.212 108.386 124.846 108.981Z" fill="current"/>
<path d="M51.9047 134.846C52.6327 135.295 53.3744 135.73 54.1601 136.169L59.8398 125.913C59.2308 125.574 58.631 125.221 58.0406 124.861L51.9047 134.846Z" fill="current"/>
<path d="M144.956 82.4295L130.895 82.6715L130.903 83.5528C130.903 83.9606 130.895 84.3683 130.884 84.7786L144.945 85.0705C144.962 84.563 144.97 84.0577 144.97 83.5528L144.956 82.4295Z" fill="current"/>
<path d="M83.4521 130.905C83.0082 130.905 82.5636 130.898 82.1171 130.884L81.7968 144.944C82.3483 144.965 82.9022 144.973 83.4518 144.973L84.4205 144.965L84.2372 130.897L83.4521 130.905Z" fill="current"/>
<path d="M83.5 0C37.4573 0 0 37.4599 0 83.5C0 129.543 37.4573 167 83.5 167C129.543 167 167 129.543 167 83.5C167 37.4599 129.543 0 83.5 0ZM83.5 151.865C45.8037 151.865 15.1354 121.197 15.1354 83.5C15.1354 45.8033 45.8037 15.1354 83.5 15.1354C121.196 15.1354 151.867 45.8037 151.867 83.5C151.867 121.196 121.196 151.865 83.5 151.865Z" fill="current"/>
<path d="M125.691 50.3224L119.157 43.4464L84.4707 76.3979L62.6909 54.6181L53.7672 63.5432L75.3174 85.0943L67.943 92.0992L74.4768 98.9778L82.0267 91.8047L89.8731 99.651L98.7975 90.726L91.1798 83.1083L125.691 50.3224ZM83.5001 87.7666C81.1444 87.7666 79.2347 85.8569 79.2347 83.5C79.2347 81.1457 81.1444 79.2363 83.5001 79.2363C85.8557 79.2363 87.7644 81.146 87.7644 83.5C87.7644 85.8569 85.8557 87.7666 83.5001 87.7666Z" fill="current"/>
</g>
<defs>
<clipPath id="clip0_1705_98">
<rect width="167" height="167" fill="white"/>
</clipPath>
</defs>
</svg>
