<svg viewBox="0 0 40 40" fill="none" xmlns="http://www.w3.org/2000/svg">
<path d="M20 0L23 12H17L20 0Z" fill=""/>
<path d="M6.41421 6.41422L13.4853 10.6569L10.6569 13.4853L6.41421 6.41422Z" fill=""/>
<path d="M34.0711 34.0711L27.0001 29.8284L29.8285 27L34.0711 34.0711Z" fill=""/>
<path d="M33.5858 6.58579L26.5147 10.8284L29.3431 13.6569L33.5858 6.58579Z" fill=""/>
<path d="M6.41421 33.4142L13.4853 29.1716L10.6569 26.3431L6.41421 33.4142Z" fill=""/>
<path d="M20 40L23 28H17L20 40Z" fill=""/>
<path d="M40 20L28 17V23L40 20Z" fill=""/>
<path d="M0 20L12 17V23L0 20Z" fill=""/>
<rect x="15.7573" y="20" width="6" height="6" transform="rotate(-45 15.7573 20)" fill=""/>
</svg>
