<svg viewBox="0 0 45 45" fill="none" xmlns="http://www.w3.org/2000/svg">
<path d="M4.47822 41.2479L41.2478 4.47836M41.2478 4.47836L35.7316 5.35691M41.2478 4.47836L40.3692 9.99451" stroke="current" stroke-width="3"/>
<path d="M7.64431 35.7627L5.40346 35.6848C3.61077 35.6224 3.1626 35.6068 3.1626 35.6068L9.63031 35.8318M9.88517 35.8407L9.63031 35.8318M9.63031 35.8318C10.0213 41.217 10.119 42.5632 10.119 42.5632M12.9977 32.4644C8.59028 31.5177 7.48843 31.281 7.48843 31.281M13.1295 32.5963C14.1818 37.1092 14.4448 38.2374 14.4448 38.2374" stroke="current" stroke-width="1.5"/>
<path d="M9.48172 33.6447L7.24086 33.5667C5.44817 33.5044 5 33.4888 5 33.4888L11.4677 33.7137M11.7226 33.7226L11.4677 33.7137M11.4677 33.7137C11.8587 39.0989 11.9564 40.4452 11.9564 40.4452M14.8351 30.3464C10.4277 29.3996 9.32583 29.1629 9.32583 29.1629M14.9669 30.4782C16.0192 34.9911 16.2822 36.1193 16.2822 36.1193" stroke="current" stroke-width="1.5"/>
<path d="M41.2477 41.2479L4.47818 4.47832M4.47818 4.47832L9.99433 5.35688M4.47818 4.47832L5.35673 9.99448" stroke="current" stroke-width="3"/>
<path d="M38.0816 35.7627L40.3225 35.6848C42.1152 35.6224 42.5634 35.6068 42.5634 35.6068L36.0956 35.8318M35.8408 35.8406L36.0956 35.8318M36.0956 35.8318C35.7047 41.2169 35.607 42.5632 35.607 42.5632M32.7283 32.4644C37.1357 31.5177 38.2375 31.281 38.2375 31.281M32.5964 32.5963C31.5442 37.1092 31.2811 38.2374 31.2811 38.2374" stroke="current" stroke-width="1.5"/>
<path d="M35.9634 33.6446L38.2042 33.5667C39.9969 33.5043 40.4451 33.4887 40.4451 33.4887L33.9774 33.7137M33.7225 33.7226L33.9774 33.7137M33.9774 33.7137C33.5864 39.0989 33.4887 40.4451 33.4887 40.4451M30.61 30.3463C35.0174 29.3996 36.1192 29.1629 36.1192 29.1629M30.4781 30.4782C29.4259 34.9911 29.1628 36.1193 29.1628 36.1193" stroke="current" stroke-width="1.5"/>
</svg>
