<svg version="1.2" baseProfile="tiny" id="Layer_1" xmlns="http://www.w3.org/2000/svg" xmlns:xlink="http://www.w3.org/1999/xlink"
	  viewBox="0 0 256 256" xml:space="preserve">
<path id="XMLID_4_" d="M254.7,82.4l-16.8-12.3c-41.5-32.9-77.1,15.4-77.1,15.4c-3.4-42.8-84.6-49.7-84.6-49.7
	c18.1,20,21,30.9,21,35.9c17.4,0.7,32.8,13.2,36.3,31.1c0.4,1.8,0.6,3.7,0.7,5.6l-3.8,0.2c-0.1-1.7-0.3-3.4-0.6-5
	c-3.2-16.7-18-28.2-34.4-28c-51,12.2-93.9-6.1-93.9-6.1c20.2,64.1,89.8,73.3,89.8,73.3c0.1,3-63.1,57.9-63.1,57.9l66.1,19.5
	c0-1.7,4.8-35.3,4.8-35.3c99.7,10.3,103.2-66.1,103.2-66.1c8.1-30,28.3-35.5,35.6-36.4v0.1H254.7z M210.1,75.9c-2.5,0-4.5-2-4.5-4.5
	s2-4.5,4.5-4.5c2.5,0,4.5,2,4.5,4.5S212.6,75.9,210.1,75.9z"/>
</svg>
