<svg viewBox="0 0 34 40" fill="none" xmlns="http://www.w3.org/2000/svg">
<path d="M9.44155 40C1.24618 35.3811 -0.911486 31.0093 0.322114 25.0383C1.23281 20.6292 4.21485 17.0421 4.50078 12.6415C5.77461 14.9596 6.30688 16.6312 6.44921 19.0536C10.5006 14.0898 13.1779 7.2182 13.3364 0C13.3364 0 23.889 6.20033 24.5814 15.566C25.4898 13.6356 25.9471 10.5696 25.0387 8.58253C27.7639 10.5697 43.7151 28.2105 22.8781 40C26.7957 32.3721 23.8887 22.0796 17.0868 17.3261C17.541 19.37 16.7446 26.9934 13.7354 30.3432C14.5692 24.746 12.942 22.3793 12.942 22.3793C12.942 22.3793 12.3836 25.5144 10.2168 28.6815C8.23812 31.5735 6.86712 34.643 9.44155 40Z" fill="current"/>
</svg>
