<svg viewBox="0 0 30 40" fill="none" xmlns="http://www.w3.org/2000/svg">
<path d="M27.2985 27.8726C29.5185 24.7489 27.9578 22.4619 27.159 21.6032C26.933 21.3601 26.8426 21.0229 26.915 20.6991C27.276 19.0834 26.6854 17.9727 25.9645 17.2518C25.6346 16.9216 25.2774 16.6733 24.9713 16.4953C24.8815 16.443 24.7999 16.3798 24.7284 16.3083C24.4738 16.0537 24.3447 15.6922 24.4038 15.3266C24.6416 13.8545 24.0674 12.8179 23.377 12.1275C23.1923 11.9428 22.9992 11.7829 22.8114 11.646C22.7611 11.6096 22.7149 11.5698 22.6727 11.5276C22.2309 11.0858 20.7948 11.9871 21.2521 11.5287L20.8025 12.0898C22.078 10.811 21.7584 9.21499 20.8005 8.25715C19.8408 7.29744 18.2407 6.97812 16.9627 8.25937C14.8197 10.4075 15.1916 9.71739 13.2521 11.6614C12.9243 11.99 12.4316 12.0903 12.0023 11.9142C6.60902 9.70056 4.17405 21.529 3.79302 23.5924C3.75585 23.7937 3.6662 23.9806 3.53273 24.1358L0.972801 27.1069C0.578211 27.5656 0.574473 28.2804 1.00237 28.7083L1.00343 28.7094L10.2337 37.8581C10.6445 38.2677 11.3094 38.2951 11.7694 37.9419L15.0018 35.4581C15.1382 35.3535 15.3014 35.2777 15.4694 35.2415C21.7214 33.9013 25.2407 30.768 27.2985 27.8726Z" fill=""/>
<path d="M6.8285 2.79401L13.3721 0L29.2585 37.206L22.7149 40L6.8285 2.79401Z" fill=""/>
</svg>
