<?xml version="1.0" encoding="utf-8"?>

<svg fill="current" version="1.1" id="_x32_" xmlns="http://www.w3.org/2000/svg" xmlns:xlink="http://www.w3.org/1999/xlink" 
	 viewBox="0 0 512 512"  xml:space="preserve">
<g>
	<path class="st0" d="M409.162,326.341c38.951-25.866,49.348-36.597,44.162-44.869c-1.156-1.848-3.558-4.047-8.362-4.047
		c-9.835,0-29.14,9.461-64.337,31.574c-27.112-16.234-58.98-34.766-90.488-52.995c30.353-17.562,62.88-36.484,90.481-53.003
		c35.196,22.113,54.501,31.574,64.337,31.574c4.811,0,7.213-2.207,8.377-4.055c5.178-8.256-5.218-18.986-44.169-44.861
		c69.425-42.867,72.235-51.269,68.538-57.653c-0.912-1.596-2.89-3.484-7.132-3.484c-9.607,0-33.479,10.528-77.07,34
		c-2.906-46.311-6.945-60.673-16.78-60.673c-2.256,0.081-4.324,1.075-5.993,2.874c-4.632,5.007-8.614,17.472-6.521,73.846
		c-27.902,15.526-59.777,33.797-91.14,51.864c-0.032-40.945-0.187-75.174-0.651-104.858c49.86-26.364,58.67-36.053,60.688-42.566
		c0.733-2.345,0.562-4.633-0.496-6.644c-1.05-1.978-3.395-4.331-8.598-4.331c-8.223,0-23.578,5.886-52.344,20.151
		C269.245,6.627,263.382,0,255.998,0c-7.377,0-13.239,6.627-15.665,88.185c-28.757-14.265-44.112-20.151-52.336-20.151
		c-5.203,0-7.548,2.353-8.598,4.34c-1.059,2.002-1.222,4.29-0.504,6.636c2.027,6.513,10.828,16.202,60.689,42.566
		c-0.505,31.672-0.627,68.506-0.652,104.867c-36.353-20.941-65.265-37.461-91.139-51.848c2.092-56.382-1.89-68.863-6.522-73.87
		c-1.669-1.799-3.738-2.793-6.27-2.891c-9.567,0-13.589,14.378-16.495,60.69c-43.591-23.473-67.472-33.993-77.079-33.993
		c-4.234,0-6.212,1.889-7.124,3.469c-3.697,6.391-0.888,14.785,68.538,57.66c-38.951,25.874-49.348,36.605-44.17,44.869
		c1.165,1.84,3.567,4.054,8.378,4.047c9.836,0,29.14-9.461,64.329-31.574c27.08,16.226,58.963,34.766,90.489,53.003
		c-30.369,17.57-62.912,36.5-90.472,52.995c-35.206-22.113-54.518-31.574-64.353-31.574c-4.812,0-7.205,2.198-8.37,4.054
		c-5.178,8.256,5.211,18.987,44.162,44.862c-69.425,42.867-72.235,51.269-68.53,57.66c0.912,1.58,2.89,3.468,7.124,3.468
		c9.607,0,33.488-10.519,77.07-34c2.915,46.311,6.937,60.689,16.495,60.689c0,0,0.236-0.008,0.285-0.008
		c2.255-0.081,4.324-1.083,5.993-2.874c4.632-5.016,8.614-17.48,6.522-73.854c27.568-15.332,58.711-33.178,91.139-51.864
		c0.041,40.954,0.196,75.174,0.66,104.867c-49.868,26.372-58.67,36.052-60.697,42.566c-0.717,2.344-0.554,4.633,0.504,6.644
		c1.05,1.978,3.395,4.331,8.598,4.331c8.223,0,23.579-5.887,52.336-20.151c2.426,81.557,8.288,88.185,15.665,88.185
		c7.384,0,13.247-6.628,15.665-88.185c28.765,14.264,44.121,20.151,52.344,20.151c5.203,0,7.548-2.353,8.598-4.34
		c1.058-2.002,1.229-4.291,0.496-6.636c-2.018-6.514-10.828-16.194-60.681-42.566c0.497-31.672,0.627-68.506,0.652-104.858
		c30.45,17.537,63.14,36.28,91.14,51.855c-2.093,56.366,1.889,68.839,6.521,73.854c1.669,1.791,3.738,2.793,5.993,2.874
		c0.057,0,0.228,0.008,0.284,0.008c9.559,0,13.581-14.378,16.488-60.689c43.592,23.481,67.472,34,77.087,34
		c4.225,0,6.204-1.888,7.116-3.468C481.397,377.602,478.587,369.208,409.162,326.341z"/>
</g>
</svg>
