<svg viewBox="0 0 40 33" fill="none" xmlns="http://www.w3.org/2000/svg">
<path d="M32.3273 30.3626C32.3273 30.2752 32.3223 30.1352 32.3117 30.046C32.179 28.9041 31.1653 28.016 30.0158 28.016H22.9089C22.3366 28.016 21.8167 27.7181 21.8167 27.1459V27.1273C21.8167 26.5081 22.3747 25.8367 22.9939 25.8367H34.4579C35.6074 25.8367 36.6209 25.0849 36.7538 23.943C36.7642 23.8538 36.7692 23.7029 36.7692 23.6157C36.7694 22.3817 35.7598 21.3101 34.5258 21.3101H22.9528C22.3563 21.3101 21.8727 20.9085 21.8727 20.3122C21.8727 19.7069 22.3636 19.2982 22.9689 19.2982H37.6885C38.8381 19.2982 39.8516 18.4842 39.9844 17.3421C39.995 17.2529 40 17.1332 40 17.0459C40.0002 15.8119 38.9905 14.7713 37.7566 14.7713L22.9675 14.7713C22.3628 14.7713 21.8727 14.2794 21.8727 13.6748C21.8727 13.0774 22.3569 12.5917 22.9541 12.5917L34.4579 12.5917C35.6074 12.5917 36.6209 11.7994 36.7538 10.6573C36.7642 10.5681 36.7692 10.4375 36.7692 10.3503C36.7694 9.11636 35.7598 8.06498 34.5258 8.06498L17.8265 8.06498C17.207 8.06498 16.7931 7.6217 16.7931 7.09073C16.7931 6.84628 16.8807 6.62867 17.0766 6.42144L19.5896 3.77581C20.0215 3.34392 20.2374 2.78261 20.2374 2.21324C20.2374 1.64388 20.0215 1.07871 19.5896 0.646822C18.726 -0.216948 17.3125 -0.214936 16.4487 0.648834L3.97667 10.1059C3.97533 10.1069 3.97365 10.1081 3.97214 10.1082L0.858073 10.345C0.366669 10.382 0.0214646 10.7918 0.0214646 11.2842C0.0214646 11.2847 0.0214646 11.285 0.0214646 11.2855L9.48106e-07 27.7915C0.000671577 28.2637 0.333642 28.6625 0.801909 28.7242L4.07424 29.1549C4.21474 29.1732 4.34367 29.161 4.46287 29.2376C8.38454 31.7553 14.86 32.5429 21.8726 32.5429H30.0837C31.3177 32.5428 32.3273 31.5964 32.3273 30.3626Z" fill="current"/>
</svg>
