<svg viewBox="0 0 20 21" fill="none" xmlns="http://www.w3.org/2000/svg">
<path d="M13.2419 7.36799V2.32999C13.2419 1.46199 12.5389 0.759995 11.6719 0.759995H8.2759C7.4089 0.759995 6.7069 1.46299 6.7069 2.32999V7.36799H1.6669C0.799901 7.36799 0.0979004 8.07099 0.0979004 8.93799V12.406C0.0979004 13.273 0.799901 13.976 1.6669 13.976H6.7059V19.013C6.7059 19.88 7.4079 20.583 8.2749 20.583H11.6719C12.5379 20.583 13.2409 19.88 13.2409 19.013V13.976H18.2789C19.1459 13.976 19.8489 13.273 19.8489 12.406V8.93799C19.8489 8.06999 19.1459 7.36799 18.2789 7.36799H13.2419Z" fill="current"/>
</svg>
