<svg viewBox="0 0 40 40" fill="none" xmlns="http://www.w3.org/2000/svg">
<path fill-rule="evenodd" clip-rule="evenodd" d="M40 0H0V40H40V0ZM30.7571 29.4501C28.7091 26.8074 26.4941 24.2941 21.5986 18.7394C16.4558 13.4128 14.1289 11.0027 11.6597 8.74872C9.61914 6.88614 7.48145 5.1301 3.57715 1.92297L3.57861 1.92517C6.46008 6.07349 8.03809 8.34525 9.73022 10.5286C11.7782 13.1714 13.9932 15.6846 18.8887 21.2394C24.0314 26.566 26.3583 28.976 28.8276 31.2301C30.8667 33.0914 33.0031 34.8463 36.9022 38.0492L36.9066 38.0505L36.8967 38.0363C34.0226 33.899 32.4468 31.6305 30.7571 29.4501ZM27.285 13.8994C31.2233 18.334 33.0022 20.3372 34.6707 22.4285C36.0452 24.1515 37.3447 25.9343 39.715 29.1859C36.6647 26.5617 34.9923 25.1228 33.3855 23.6141C31.4352 21.7828 29.5817 19.8484 25.4784 15.5661C21.5402 11.1315 19.7612 9.1283 18.0928 7.03697C16.7184 5.31418 15.4189 3.53162 13.0492 0.280701L13.0485 0.279602C16.0988 2.90381 17.7711 4.34262 19.3779 5.85138C21.3282 7.68272 23.1818 9.6171 27.285 13.8994ZM21.9452 32.9855C20.2767 30.8942 18.4978 28.891 14.5596 24.4564C10.4563 20.1741 8.60278 18.2398 6.65247 16.4084C5.04565 14.8997 3.37317 13.4608 0.322876 10.8366C2.69312 14.0882 3.99268 15.871 5.36731 17.594C7.03577 19.6853 8.8147 21.6885 12.7529 26.1231C16.8562 30.4054 18.7097 32.3397 20.6599 34.1711C22.2666 35.6798 23.9391 37.1187 26.9895 39.7429C24.6193 36.4913 23.3197 34.7085 21.9452 32.9855Z" fill=""/>
</svg>
