<svg viewBox="0 0 80 80" fill="none" xmlns="http://www.w3.org/2000/svg">
<path d="M40.0001 16.8653C27.2218 16.8653 16.8652 27.2217 16.8652 40.0002C16.8652 52.7786 27.2218 63.1348 40.0001 63.1348C52.776 63.1348 63.1349 52.7784 63.1349 40C63.1349 27.2216 52.776 16.8653 40.0001 16.8653Z" fill=""/>
<path d="M40 9.63375C42.6587 9.63375 44.8169 7.47547 44.8169 4.81687C44.8169 2.15578 42.6587 0 40 0C37.3389 0 35.1831 2.15578 35.1831 4.81687C35.1831 7.47562 37.3389 9.63375 40 9.63375Z" fill=""/>
<path d="M40 70.3662C37.3389 70.3662 35.1831 72.522 35.1831 75.1831C35.1831 77.8419 37.3389 80 40 80C42.6587 80 44.8169 77.8417 44.8169 75.1831C44.8169 72.522 42.6587 70.3662 40 70.3662Z" fill=""/>
<path d="M18.5255 18.5278C20.4079 16.6455 20.4079 13.5986 18.5255 11.7162C16.6457 9.8339 13.5963 9.8339 11.7164 11.7162C9.8341 13.5986 9.8341 16.6455 11.7164 18.5278C13.5963 20.4102 16.6455 20.4102 18.5255 18.5278Z" fill=""/>
<path d="M61.4721 61.4722C59.5923 63.3545 59.5923 66.4039 61.4721 68.2837C63.3545 70.1661 66.4039 70.1661 68.2837 68.2837C70.1635 66.4039 70.166 63.3545 68.2837 61.4722C66.4037 59.5923 63.3545 59.5923 61.4721 61.4722Z" fill=""/>
<path d="M4.81687 35.1856C2.15578 35.1856 0 37.3412 0 40C0 42.6611 2.15578 44.8169 4.81687 44.8169C7.47562 44.8169 9.63141 42.6611 9.63141 40C9.63141 37.3412 7.47562 35.1856 4.81687 35.1856Z" fill=""/>
<path d="M75.1831 35.1856C72.5243 35.1856 70.3662 37.3389 70.3662 40.0002C70.3662 42.6614 72.5245 44.817 75.1831 44.817C77.8442 44.8169 80 42.6611 80 40C79.9975 37.3412 77.8442 35.1856 75.1831 35.1856Z" fill=""/>
<path d="M11.7162 61.4722C9.83386 63.3545 9.83386 66.4039 11.7162 68.2838C13.596 70.1661 16.6454 70.1661 18.5278 68.2838C20.4076 66.4039 20.4076 63.3545 18.5278 61.4747C16.6454 59.5923 13.5962 59.5923 11.7162 61.4722Z" fill=""/>
<path d="M61.4746 11.7162C59.5922 13.5986 59.5922 16.6455 61.4721 18.5278C63.3544 20.4101 66.4038 20.4101 68.2836 18.5278C70.166 16.6455 70.166 13.5986 68.2836 11.7162C66.4036 9.8364 63.3544 9.83406 61.4746 11.7162Z" fill=""/>
</svg>
