<svg viewBox="0 0 99 90" fill="none" xmlns="http://www.w3.org/2000/svg">
<path d="M70.6994 20.5556C73.1437 17.8278 76.6962 16.1111 80.65 16.1111C88.0232 16.1111 94 22.0807 94 29.4444C94 36.8084 88.0232 42.7778 80.65 42.7778H53.95M26.1994 9.44444C28.6438 6.71667 32.1962 5 36.15 5C43.5232 5 49.5 10.9696 49.5 18.3333C49.5 25.6971 43.5232 31.6667 36.15 31.6667H5M43.9994 80.5556C46.4437 83.2831 49.9962 85 53.95 85C61.3232 85 67.3 79.0307 67.3 71.6667C67.3 64.3027 61.3232 58.3333 53.95 58.3333H5" stroke="" fill="transparent" stroke-width="9" stroke-linecap="round" stroke-linejoin="round"/>
</svg>
