<svg viewBox="0 0 40 26" fill="none" xmlns="http://www.w3.org/2000/svg">
<path d="M20 13.061C22.1297 13.061 24.1817 12.7401 26.1067 12.1457L27.3284 24.1646C25.0591 25.0265 22.5869 25.5 20 25.5V13.061Z" fill="#current"/>
<path d="M29.2579 23.3144L28.0505 11.4353C29.73 10.7226 31.2885 9.79361 32.6882 8.68501L35.323 18.611C33.6466 20.5356 31.5872 22.1397 29.2579 23.3144Z" fill="#current"/>
<path d="M36.8844 16.5584C38.8571 13.5705 40 10.0237 40 6.21951C40 4.04331 39.626 1.95131 38.9366 2.18903e-06C37.9785 2.71185 36.4112 5.15198 34.3919 7.16879L36.8844 16.5584Z" fill="#current"/>
<path d="M18 12.9658C16.0404 12.7782 14.164 12.318 12.4122 11.625L11.2013 23.5388C13.2888 24.5262 15.581 25.1733 18 25.4048V12.9658Z" fill="#current"/>
<path d="M6.06348 7.60924C7.37619 8.83893 8.8634 9.89642 10.4859 10.7439L9.29036 22.5057C7.01751 21.1138 5.05585 19.2919 3.52855 17.1587L6.06348 7.60924Z" fill="#current"/>
<path d="M4.41903 5.86972C2.96891 4.13503 1.82414 2.15316 1.06341 0C0.373998 1.95131 0 4.04331 0 6.21951C0 9.28364 0.741453 12.1808 2.06083 14.7534L4.41903 5.86972Z" fill="#current"/>
</svg>
