<svg viewBox="0 0 44 41" fill="none" xmlns="http://www.w3.org/2000/svg">
<path fill-rule="evenodd" clip-rule="evenodd" d="M17.2138 0.350519C17.6693 0.308499 18.0847 0.610138 18.1859 1.05565L19.2688 5.84531C19.3593 6.24752 19.1676 6.6603 18.8027 6.8514L18.6058 6.95432C19.3328 7.24459 20.1115 7.47 20.9093 7.56734V7.56641C21.1877 7.60034 21.47 7.61968 21.7523 7.61968C22.0787 7.61968 22.4036 7.59446 22.7272 7.55048V7.55107C23.5087 7.44354 24.2736 7.21791 24.9903 6.9323L24.8354 6.85131C24.4705 6.66022 24.2787 6.24744 24.3692 5.84522L25.4533 1.05565C25.5532 0.610224 25.9687 0.308585 26.4242 0.350519C31.0173 0.777962 37.4083 3.94419 37.6787 4.07869C37.9864 4.23245 38.1808 4.54747 38.1821 4.89164C38.1821 5.23589 37.9877 5.55091 37.6787 5.70536L37.5592 5.76517C38.041 6.01324 38.5846 6.31744 39.1449 6.67693C41.562 8.22697 43.0616 9.99086 43.6023 11.9193C43.7341 12.3868 43.4744 12.8741 43.0149 13.0274L42.2211 13.2919C42.8112 14.4522 43.2245 16.0064 43.4531 17.9314C43.6676 19.7336 43.6372 21.1986 43.6356 21.2763L43.6356 21.2775C43.6276 21.6058 43.4438 21.9048 43.1522 22.0592C43.019 22.1298 42.8725 22.1644 42.7274 22.1644C42.5556 22.1644 42.3838 22.1165 42.2346 22.0193L36.853 18.5541C36.7544 18.4902 36.6679 18.4076 36.6 18.311L35.2906 16.4382C35.0005 17.1582 34.9767 17.9516 35.2215 18.8103C35.5291 19.8897 36.1471 20.6774 36.1538 20.6854C36.3469 20.9251 36.4055 21.246 36.3096 21.5391C35.8033 23.0837 35.3321 24.5522 34.8961 25.9355L34.8968 25.9359C34.3014 27.8203 33.7741 29.5463 33.3106 31.0909L33.3105 31.0909C32.2627 34.5874 31.5515 37.1552 31.1811 38.5275H31.1811C30.9854 39.2546 30.8842 39.6461 30.8802 39.6621C30.7776 40.0643 30.4154 40.3466 29.9999 40.3466H13.6368C13.4707 40.3466 13.3129 40.3015 13.1767 40.2216C13.0574 40.1516 12.9548 40.055 12.8777 39.9387C12.8227 39.8556 12.7808 39.7626 12.7552 39.662C12.7412 39.6049 11.5414 34.9339 9.1862 27.3606C9.04181 26.8965 8.89308 26.4214 8.74002 25.9359L8.74013 25.9358C8.30418 24.5525 7.83307 23.0839 7.32694 21.5391C7.23106 21.246 7.28961 20.9251 7.48275 20.6854L7.48493 20.6826C7.52609 20.6288 8.13538 19.8321 8.42824 18.7604C8.66186 17.9066 8.63726 17.1364 8.35061 16.4336L7.038 18.3109C6.97007 18.4074 6.88348 18.49 6.78495 18.5539L1.40335 22.0191C1.25419 22.1163 1.08244 22.1642 0.910615 22.1642C0.765464 22.1642 0.618949 22.1296 0.485815 22.0591C0.194148 21.9045 0.0103864 21.6056 0.0023745 21.2773L0.00235042 21.2761C0.000748737 21.199 -0.0296686 19.7338 0.184858 17.9313C0.413484 16.0065 0.826739 14.4523 1.41676 13.292L0.62304 13.0274C0.16355 12.8743 -0.0947909 12.3868 0.0357005 11.9194C0.576418 9.99111 2.07592 8.22722 4.49295 6.67709C5.05332 6.31758 5.59698 6.01335 6.07884 5.76527L5.9593 5.70544C5.65033 5.55091 5.45591 5.23598 5.45591 4.89172C5.45728 4.54747 5.65169 4.23253 5.9593 4.07869C6.22965 3.94419 12.6207 0.777962 17.2138 0.350519Z" fill="#current"/>
</svg>
