<svg viewBox="0 0 33 40" fill="none" xmlns="http://www.w3.org/2000/svg">
<path d="M16.601 0.0186934C6.7835 0.429815 0 8.03556 0 16.8638V34.2391C0 34.488 0.140646 34.7152 0.367845 34.8125L11.5439 39.8758C12.3877 40.2545 13.3398 39.6378 13.3398 38.7182V32.4973V26.9255C13.3398 26.5036 13.1342 26.1141 12.7772 25.8761L6.94579 21.938C6.00454 21.3754 5.39867 20.3151 5.49604 19.1142C5.63669 17.5346 7.07561 16.3878 8.666 16.3878H13.3831C14.0863 16.3878 14.6489 16.9612 14.6489 17.6536V24.9132C14.6489 24.9132 14.6489 25.5731 16.3908 25.5731C18.1326 25.5731 18.1326 24.9132 18.1326 24.9132V17.6536C18.1326 16.9504 18.6952 16.3878 19.3984 16.3878H24.1155C25.7059 16.3878 27.1448 17.5346 27.2855 19.1142C27.3937 20.3151 26.777 21.3754 25.8357 21.938L20.0043 25.8761C19.6581 26.1141 19.4417 26.5036 19.4417 26.9255V32.5081V38.729C19.4417 39.6486 20.3938 40.2653 21.2377 39.8866L32.4137 34.8234C32.6409 34.7152 32.7815 34.4988 32.7815 34.25V16.3986C32.7923 7.08349 25.0135 -0.424885 15.601 0.0186934Z" fill="#current"/>
</svg>
