<svg  viewBox="0 0 40 40" fill="none" xmlns="http://www.w3.org/2000/svg">
<path d="M34.8678 18C33.9844 11.3694 28.7694 6.1081 22.1612 5.15454L23.0299 0.228015C31.9903 1.58973 38.9975 8.89712 39.9012 18H34.8678Z" fill="#current"/>
<path d="M20 0C20.347 0 20.6919 0.00883663 21.0346 0.0262971L20.1574 5.00081C20.105 5.00027 20.0525 5 20 5C11.7157 5 5 11.7157 5 20H0C0 8.9543 8.9543 0 20 0Z" fill="#current"/>
<path d="M39.9939 20.5H34.9918C34.7751 27.1159 30.2742 32.648 24.1738 34.4117L23.2343 39.7398C32.5822 38.2199 39.7554 30.22 39.9939 20.5Z" fill="#current"/>
<path d="M21.1634 39.9667L22.064 34.8592C21.3893 34.952 20.7003 35 20 35C12.3938 35 6.10996 29.3387 5.13217 22H0.0987505C1.1022 32.1066 9.6293 40 20 40C20.3905 40 20.7784 39.9888 21.1634 39.9667Z" fill="#current"/>
</svg>
