<svg viewBox="0 0 40 40" fill="none" xmlns="http://www.w3.org/2000/svg">
<path fill-rule="evenodd" clip-rule="evenodd" d="M38.179 0.107106L31.7627 2.82686C31.2798 3.03154 30.9658 3.50537 30.9658 4.02998V7.18551L12.0432 26.1081L7.26434 24.5153C6.79505 24.3582 6.27693 24.4799 5.92716 24.831L0.38266 30.3756C-0.302961 31.0612 -0.0277283 32.233 0.893204 32.5394L5.81818 34.1813L7.46012 39.1063C7.76411 40.02 8.93269 40.3081 9.62386 39.6167L15.1685 34.0721C15.5187 33.7219 15.6408 33.2047 15.4841 32.7349L13.8913 27.956L32.8139 9.03347H35.9693C36.494 9.03347 36.9679 8.71948 37.1725 8.23659L39.8922 1.82022C40.3511 0.738353 39.2539 -0.350079 38.179 0.107106ZM21.287 13.1681L26.8329 7.62222C17.4434 0.946242 5.5406 0.500464 0.499066 4.64818C0.301801 4.81013 0.142193 5.03927 0.0681306 5.30583C-0.0622594 5.77247 0.0778962 6.23911 0.385082 6.55817C0.388029 6.56123 0.390482 6.56462 0.392937 6.56801C0.395559 6.57163 0.398182 6.57525 0.40141 6.57848L14.139 20.3161L15.9871 18.4681L4.01038 6.49121C9.02746 6.2695 16.3751 9.60253 21.287 13.1681ZM32.3773 13.1665C37.839 20.8478 40.3221 32.8801 35.3906 39.458C35.6901 39.0584 35.1991 39.9813 34.3449 39.9812C34.6662 39.9812 33.9326 40.0871 33.4413 39.6146C33.3124 39.491 21.1431 27.3203 19.8019 25.9789L19.6833 25.8603L21.5314 24.0123L33.509 35.99C33.7326 30.9738 30.3977 23.6247 26.8313 18.7123L32.3773 13.1665Z" fill="#current"/>
</svg>
