<svg viewBox="0 0 14 14" fill="none" xmlns="http://www.w3.org/2000/svg">
<path d="M10 6.14286L7 7.85714M10 6.14286V2.71429M10 6.14286L13 7.85714M7 7.85714L4 6.14286M7 7.85714V4.42857M7 7.85714V11.2857M7 7.85714L10 9.57143M7 7.85714L4 9.57143M4 6.14286V2.71429M4 6.14286L1 7.85714M4 2.71429L7 1L10 2.71429M4 2.71429L7 4.42857M10 2.71429L7 4.42857M10 13L13 11.2857V7.85714M10 13L7 11.2857M10 13V9.57143M7 11.2857L4 13M13 7.85714L10 9.57143M4 13L1 11.2857V7.85714M4 13V9.57143M1 7.85714L4 9.57143" stroke="current"/>
</svg>
