<svg viewBox="0 0 17 17" fill="none" xmlns="http://www.w3.org/2000/svg">
<path d="M12.25 7.42857L8.5 9.57143M12.25 7.42857V3.14286M12.25 7.42857L16 9.57143M8.5 9.57143L4.75 7.42857M8.5 9.57143V5.28571M8.5 9.57143V13.8571M8.5 9.57143L12.25 11.7143M8.5 9.57143L4.75 11.7143M4.75 7.42857V3.14286M4.75 7.42857L1 9.57143M4.75 3.14286L8.5 1L12.25 3.14286M4.75 3.14286L8.5 5.28571M12.25 3.14286L8.5 5.28571M12.25 16L16 13.8571V9.57143M12.25 16L8.5 13.8571M12.25 16V11.7143M8.5 13.8571L4.75 16M16 9.57143L12.25 11.7143M4.75 16L1 13.8571V9.57143M4.75 16V11.7143M1 9.57143L4.75 11.7143" stroke="current"/>
</svg>
