<svg viewBox="0 0 29 28" fill="none" xmlns="http://www.w3.org/2000/svg">
<path d="M25.4898 3.08289L23.3883 8.33584L22.5863 8.01498L24.6878 2.76203M25.4898 3.08289L24.6878 2.76203M25.4898 3.08289L26.3507 2.48149L26.4131 1.42103L25.1655 0.92192L24.4793 1.73282L24.6878 2.76203M15.8071 26.123L16.0559 23.1757L21.6249 9.25534L23.2289 9.89706L17.6599 23.8174L15.8071 26.123ZM24.8329 10.5388L25.0938 11.0494L25.6542 9.64861L25.3933 9.13798L22.9873 8.17541L20.5813 7.21284L20.0401 7.40261L19.4797 8.8034L20.0208 8.61363L22.4269 9.5762L24.8329 10.5388Z" stroke="current"/>
<rect width="6.0467" height="1.34371" transform="matrix(0.928456 0.371442 0.371442 -0.928456 19.6131 8.46973)" stroke="transparent"/>
<rect width="6.0467" height="1.34371" transform="matrix(-0.371442 0.928456 0.928456 0.371442 24.5416 2.48145)" stroke="transparent"/>
<path d="M3.12939 3.28877L5.316 8.50687L6.11269 8.17302L3.92608 2.95492M3.12939 3.28877L3.92608 2.95492M3.12939 3.28877L2.25888 2.70144L2.17922 1.64214L3.41852 1.12282L4.11783 1.92246L3.92608 2.95492M13.1853 26.1685L12.8887 23.2256L7.09414 9.3976L5.50075 10.0653L11.2953 23.8933L13.1853 26.1685ZM3.90737 10.733L3.65479 11.2478L3.0717 9.85629L3.32427 9.3415L5.71435 8.33995L8.10443 7.3384L8.64855 7.51935L9.23164 8.91085L8.68752 8.7299L6.29744 9.73144L3.90737 10.733Z" fill="transparent"/>
<rect x="9.09277" y="8.5791" width="6.0467" height="1.34371" transform="rotate(157.264 9.09277 8.5791)" stroke="transparent"/>
<rect x="4.0675" y="2.67188" width="6.0467" height="1.34371" transform="rotate(67.2642 4.0675 2.67188)" stroke="transparent"/>
</svg>
