<svg viewBox="0 0 26 24" fill="none" xmlns="http://www.w3.org/2000/svg">
<path d="M23.2647 3.80244L19.2963 7.83502L18.6806 7.22913L22.649 3.19655M23.2647 3.80244L22.649 3.19655M23.2647 3.80244L24.2911 3.58048L24.7585 2.62655L23.8008 1.68406L22.8545 2.16674L22.649 3.19655M5.42977 21.3101L6.79828 18.6879L17.3145 8.00155L18.5459 9.21332L8.02965 19.8997L5.42977 21.3101ZM19.7773 10.4251L19.8206 10.9969L20.8788 9.92153L20.8355 9.34975L18.9885 7.53208L17.1414 5.71441L16.569 5.68031L15.5107 6.75566L16.0831 6.78977L17.9302 8.60743L19.7773 10.4251Z" stroke="current"/>
<rect width="6.0467" height="1.34371" transform="matrix(0.712756 0.701412 0.701412 -0.712756 15.7627 6.5)" fill="current"/>
<rect width="6.0467" height="1.34371" transform="matrix(-0.701412 0.712756 0.712756 0.701412 22.6225 2.88184)" fill="current"/>
<path d="M3.19627 3.96302L7.22885 7.93141L7.83474 7.31572L3.80216 3.34733M3.19627 3.96302L3.80216 3.34733M3.19627 3.96302L2.16645 3.75755L1.68377 2.81124L2.62626 1.85351L3.58019 2.32094L3.80216 3.34733M21.3098 21.1823L19.8994 18.5824L9.21304 8.06612L8.00126 9.2975L18.6876 19.8137L21.3098 21.1823ZM6.78948 10.5289L6.75537 11.1013L5.68002 10.043L5.71412 9.47063L7.53179 7.62357L9.34946 5.7765L9.92124 5.73322L10.9966 6.79146L10.4248 6.83474L8.60715 8.68181L6.78948 10.5289Z" stroke="current"/>
<rect x="10.7404" y="6.53906" width="6.0467" height="1.34371" transform="rotate(134.54 10.7404 6.53906)" fill="current"/>
<rect x="3.8233" y="3.03223" width="6.0467" height="1.34371" transform="rotate(44.5404 3.8233 3.03223)" fill="current"/>
</svg>
