<svg viewBox="0 0 27 36" fill="none" xmlns="http://www.w3.org/2000/svg">
<path d="M5.5 8.77778L3.89823 10.4444M5.5 8.77778L7.10176 10.4444M5.5 8.77778V6M5.5 8.77778V11M5.5 6V3.22222M5.5 6L3.18806 4.61112M5.5 6L7.81193 7.38889M5.5 6L3.18805 7.38883M5.5 6L7.81193 4.61108M5.5 3.22222L3.89823 1.55556M5.5 3.22222L7.10176 1.55556M5.5 3.22222V1M3.18806 4.61112L1 5.22117M3.18806 4.61112L2.60177 2.33441M3.18806 4.61112L1.33849 3.5M7.81193 7.38889L8.39823 9.66561M7.81193 7.38889L10 6.77883M7.81193 7.38889L9.66149 8.5M3.18805 7.38883L2.60177 9.66556M3.18805 7.38883L1 6.77883M3.18805 7.38883L1.33852 8.5M7.81193 4.61108L10 5.22111M7.81193 4.61108L8.39823 2.33437M7.81193 4.61108L9.66155 3.5" stroke="current" stroke-linecap="round" stroke-linejoin="round"/>
<path d="M6.22367 29.669L18.6261 8.36133L20.2045 9.28003L7.80201 30.5877L6.22367 29.669Z" fill="current" stroke="transparent"/>
<path fill-rule="evenodd" clip-rule="evenodd" d="M19.8746 8.03106C21.1821 8.79213 22.8591 8.34913 23.6202 7.04159C24.3812 5.73404 23.9382 4.05709 22.6307 3.29602C21.3232 2.53494 19.6462 2.97794 18.8851 4.28549C18.1241 5.59303 18.5671 7.26998 19.8746 8.03106ZM20.334 7.24177C21.2057 7.74916 22.3236 7.45382 22.831 6.58213C23.3384 5.71043 23.0431 4.59247 22.1714 4.08508C21.2997 3.5777 20.1817 3.87303 19.6743 4.74473C19.1669 5.61642 19.4623 6.73439 20.334 7.24177Z" fill="current" stroke="transparent"/>
<path fill-rule="evenodd" clip-rule="evenodd" d="M17.3856 3.41409C17.1855 3.63891 17.0047 3.88696 16.8475 4.15717C15.579 6.33641 16.3173 9.13133 18.4966 10.3998C20.6758 11.6682 23.4707 10.9299 24.7392 8.75067C24.8965 8.48046 25.0229 8.20079 25.1196 7.91574L25.1195 7.9157C23.7055 9.50385 21.3242 9.93255 19.4153 8.82143C17.5064 7.71032 16.703 5.42797 17.3857 3.41413L17.3856 3.41409Z" fill="current" stroke="transparent"/>
<path d="M5.36969 30.2288L7.9315 28.5504L7.73721 31.6069L4.94573 33.68L5.36969 30.2288Z" fill="current" stroke="transparent"/>
</svg>
